%TF.GenerationSoftware,KiCad,Pcbnew,(6.0.7)*%
%TF.CreationDate,2022-11-14T21:42:39-08:00*%
%TF.ProjectId,3PDT_Regulator,33504454-5f52-4656-9775-6c61746f722e,rev?*%
%TF.SameCoordinates,Original*%
%TF.FileFunction,Paste,Top*%
%TF.FilePolarity,Positive*%
%FSLAX46Y46*%
G04 Gerber Fmt 4.6, Leading zero omitted, Abs format (unit mm)*
G04 Created by KiCad (PCBNEW (6.0.7)) date 2022-11-14 21:42:39*
%MOMM*%
%LPD*%
G01*
G04 APERTURE LIST*
G04 Aperture macros list*
%AMRoundRect*
0 Rectangle with rounded corners*
0 $1 Rounding radius*
0 $2 $3 $4 $5 $6 $7 $8 $9 X,Y pos of 4 corners*
0 Add a 4 corners polygon primitive as box body*
4,1,4,$2,$3,$4,$5,$6,$7,$8,$9,$2,$3,0*
0 Add four circle primitives for the rounded corners*
1,1,$1+$1,$2,$3*
1,1,$1+$1,$4,$5*
1,1,$1+$1,$6,$7*
1,1,$1+$1,$8,$9*
0 Add four rect primitives between the rounded corners*
20,1,$1+$1,$2,$3,$4,$5,0*
20,1,$1+$1,$4,$5,$6,$7,0*
20,1,$1+$1,$6,$7,$8,$9,0*
20,1,$1+$1,$8,$9,$2,$3,0*%
G04 Aperture macros list end*
%ADD10RoundRect,0.150000X0.512500X0.150000X-0.512500X0.150000X-0.512500X-0.150000X0.512500X-0.150000X0*%
%ADD11RoundRect,0.150000X-0.512500X-0.150000X0.512500X-0.150000X0.512500X0.150000X-0.512500X0.150000X0*%
%ADD12RoundRect,0.150000X-0.825000X-0.150000X0.825000X-0.150000X0.825000X0.150000X-0.825000X0.150000X0*%
%ADD13RoundRect,0.200000X0.200000X0.275000X-0.200000X0.275000X-0.200000X-0.275000X0.200000X-0.275000X0*%
%ADD14RoundRect,0.200000X-0.200000X-0.275000X0.200000X-0.275000X0.200000X0.275000X-0.200000X0.275000X0*%
%ADD15R,0.600000X0.450000*%
%ADD16R,0.500000X0.500000*%
%ADD17RoundRect,0.250000X-0.475000X0.250000X-0.475000X-0.250000X0.475000X-0.250000X0.475000X0.250000X0*%
%ADD18RoundRect,0.250000X-0.250000X-0.475000X0.250000X-0.475000X0.250000X0.475000X-0.250000X0.475000X0*%
G04 APERTURE END LIST*
D10*
%TO.C,U3*%
X244862500Y-140400000D03*
X244862500Y-138500000D03*
X247137500Y-138500000D03*
X247137500Y-139450000D03*
X247137500Y-140400000D03*
%TD*%
D11*
%TO.C,U2*%
X232862500Y-138550000D03*
X232862500Y-139500000D03*
X232862500Y-140450000D03*
X235137500Y-140450000D03*
X235137500Y-138550000D03*
%TD*%
D12*
%TO.C,U1*%
X223025000Y-126595000D03*
X223025000Y-127865000D03*
X223025000Y-129135000D03*
X223025000Y-130405000D03*
X227975000Y-130405000D03*
X227975000Y-129135000D03*
X227975000Y-127865000D03*
X227975000Y-126595000D03*
%TD*%
D13*
%TO.C,R5*%
X242825000Y-142500000D03*
X241175000Y-142500000D03*
%TD*%
%TO.C,R4*%
X247825000Y-142500000D03*
X246175000Y-142500000D03*
%TD*%
D14*
%TO.C,R3*%
X232175000Y-142500000D03*
X233825000Y-142500000D03*
%TD*%
%TO.C,R2*%
X237175000Y-142500000D03*
X238825000Y-142500000D03*
%TD*%
%TO.C,R1*%
X250675000Y-130900000D03*
X252325000Y-130900000D03*
%TD*%
D15*
%TO.C,D4*%
X226270000Y-121720000D03*
X228370000Y-121720000D03*
%TD*%
%TO.C,D3*%
X222270000Y-121720000D03*
X224370000Y-121720000D03*
%TD*%
D16*
%TO.C,D2*%
X220000000Y-123350000D03*
X220000000Y-121150000D03*
%TD*%
D17*
%TO.C,C6*%
X242000000Y-138500000D03*
X242000000Y-140400000D03*
%TD*%
%TO.C,C5*%
X238000000Y-138550000D03*
X238000000Y-140450000D03*
%TD*%
%TO.C,C4*%
X231000000Y-128600000D03*
X231000000Y-130500000D03*
%TD*%
%TO.C,C3*%
X231000000Y-121550000D03*
X231000000Y-123450000D03*
%TD*%
D18*
%TO.C,C2*%
X228220000Y-124220000D03*
X226320000Y-124220000D03*
%TD*%
%TO.C,C1*%
X224270000Y-124220000D03*
X222370000Y-124220000D03*
%TD*%
M02*
