%TF.GenerationSoftware,KiCad,Pcbnew,(6.0.7)*%
%TF.CreationDate,2022-11-14T21:42:39-08:00*%
%TF.ProjectId,3PDT_Regulator,33504454-5f52-4656-9775-6c61746f722e,rev?*%
%TF.SameCoordinates,Original*%
%TF.FileFunction,Copper,L1,Top*%
%TF.FilePolarity,Positive*%
%FSLAX46Y46*%
G04 Gerber Fmt 4.6, Leading zero omitted, Abs format (unit mm)*
G04 Created by KiCad (PCBNEW (6.0.7)) date 2022-11-14 21:42:39*
%MOMM*%
%LPD*%
G01*
G04 APERTURE LIST*
G04 Aperture macros list*
%AMRoundRect*
0 Rectangle with rounded corners*
0 $1 Rounding radius*
0 $2 $3 $4 $5 $6 $7 $8 $9 X,Y pos of 4 corners*
0 Add a 4 corners polygon primitive as box body*
4,1,4,$2,$3,$4,$5,$6,$7,$8,$9,$2,$3,0*
0 Add four circle primitives for the rounded corners*
1,1,$1+$1,$2,$3*
1,1,$1+$1,$4,$5*
1,1,$1+$1,$6,$7*
1,1,$1+$1,$8,$9*
0 Add four rect primitives between the rounded corners*
20,1,$1+$1,$2,$3,$4,$5,0*
20,1,$1+$1,$4,$5,$6,$7,0*
20,1,$1+$1,$6,$7,$8,$9,0*
20,1,$1+$1,$8,$9,$2,$3,0*%
G04 Aperture macros list end*
%TA.AperFunction,ComponentPad*%
%ADD10C,1.440000*%
%TD*%
%TA.AperFunction,ComponentPad*%
%ADD11RoundRect,0.250000X-0.500000X-0.500000X0.500000X-0.500000X0.500000X0.500000X-0.500000X0.500000X0*%
%TD*%
%TA.AperFunction,ComponentPad*%
%ADD12RoundRect,0.250000X0.500000X0.500000X-0.500000X0.500000X-0.500000X-0.500000X0.500000X-0.500000X0*%
%TD*%
%TA.AperFunction,SMDPad,CuDef*%
%ADD13RoundRect,0.150000X0.512500X0.150000X-0.512500X0.150000X-0.512500X-0.150000X0.512500X-0.150000X0*%
%TD*%
%TA.AperFunction,SMDPad,CuDef*%
%ADD14RoundRect,0.150000X-0.512500X-0.150000X0.512500X-0.150000X0.512500X0.150000X-0.512500X0.150000X0*%
%TD*%
%TA.AperFunction,SMDPad,CuDef*%
%ADD15RoundRect,0.150000X-0.825000X-0.150000X0.825000X-0.150000X0.825000X0.150000X-0.825000X0.150000X0*%
%TD*%
%TA.AperFunction,ComponentPad*%
%ADD16O,2.850000X1.600000*%
%TD*%
%TA.AperFunction,SMDPad,CuDef*%
%ADD17RoundRect,0.200000X0.200000X0.275000X-0.200000X0.275000X-0.200000X-0.275000X0.200000X-0.275000X0*%
%TD*%
%TA.AperFunction,SMDPad,CuDef*%
%ADD18RoundRect,0.200000X-0.200000X-0.275000X0.200000X-0.275000X0.200000X0.275000X-0.200000X0.275000X0*%
%TD*%
%TA.AperFunction,SMDPad,CuDef*%
%ADD19R,0.600000X0.450000*%
%TD*%
%TA.AperFunction,SMDPad,CuDef*%
%ADD20R,0.500000X0.500000*%
%TD*%
%TA.AperFunction,ComponentPad*%
%ADD21R,1.800000X1.800000*%
%TD*%
%TA.AperFunction,ComponentPad*%
%ADD22C,1.800000*%
%TD*%
%TA.AperFunction,SMDPad,CuDef*%
%ADD23RoundRect,0.250000X-0.475000X0.250000X-0.475000X-0.250000X0.475000X-0.250000X0.475000X0.250000X0*%
%TD*%
%TA.AperFunction,SMDPad,CuDef*%
%ADD24RoundRect,0.250000X-0.250000X-0.475000X0.250000X-0.475000X0.250000X0.475000X-0.250000X0.475000X0*%
%TD*%
%TA.AperFunction,ViaPad*%
%ADD25C,0.800000*%
%TD*%
%TA.AperFunction,Conductor*%
%ADD26C,0.500000*%
%TD*%
%TA.AperFunction,Conductor*%
%ADD27C,0.250000*%
%TD*%
G04 APERTURE END LIST*
D10*
%TO.P,RV2,1,1*%
%TO.N,Net-(R5-Pad1)*%
X253460000Y-135845000D03*
%TO.P,RV2,2,2*%
%TO.N,/ADJ_NEG*%
X256000000Y-140925000D03*
%TO.P,RV2,3,3*%
X258540000Y-135845000D03*
%TD*%
%TO.P,RV1,1,1*%
%TO.N,Net-(R2-Pad1)*%
X221460000Y-135845000D03*
%TO.P,RV1,2,2*%
%TO.N,/ADJ_POS*%
X224000000Y-140925000D03*
%TO.P,RV1,3,3*%
X226540000Y-135845000D03*
%TD*%
D11*
%TO.P,P10,1,1*%
%TO.N,GND*%
X259000000Y-120500000D03*
%TD*%
%TO.P,P9,1,1*%
%TO.N,GND*%
X234500000Y-120500000D03*
%TD*%
D12*
%TO.P,P8,1,1*%
%TO.N,GND*%
X219500000Y-130500000D03*
%TD*%
D13*
%TO.P,U3,5,VOUT*%
%TO.N,/VOUT_NEG*%
X244862500Y-140400000D03*
%TO.P,U3,4,ADJ*%
%TO.N,/ADJ_NEG*%
X244862500Y-138500000D03*
%TO.P,U3,3,~{SHDN}*%
%TO.N,/V_NEG*%
X247137500Y-138500000D03*
%TO.P,U3,2,VIN*%
X247137500Y-139450000D03*
%TO.P,U3,1,GND*%
%TO.N,GND*%
X247137500Y-140400000D03*
%TD*%
D14*
%TO.P,U2,1,VIN*%
%TO.N,/V_DBL*%
X232862500Y-138550000D03*
%TO.P,U2,2,GND*%
%TO.N,GND*%
X232862500Y-139500000D03*
%TO.P,U2,3,EN*%
%TO.N,/V_DBL*%
X232862500Y-140450000D03*
%TO.P,U2,4,ADJ*%
%TO.N,/ADJ_POS*%
X235137500Y-140450000D03*
%TO.P,U2,5,VOUT*%
%TO.N,/VOUT_POS*%
X235137500Y-138550000D03*
%TD*%
D15*
%TO.P,U1,1,BOOST*%
%TO.N,+9V*%
X223025000Y-126595000D03*
%TO.P,U1,2,CAP+*%
%TO.N,Net-(C1-Pad2)*%
X223025000Y-127865000D03*
%TO.P,U1,3,GND*%
%TO.N,GND*%
X223025000Y-129135000D03*
%TO.P,U1,4,CAP-*%
%TO.N,Net-(C2-Pad2)*%
X223025000Y-130405000D03*
%TO.P,U1,5,VOUT*%
%TO.N,/V_NEG*%
X227975000Y-130405000D03*
%TO.P,U1,6,LV*%
%TO.N,unconnected-(U1-Pad6)*%
X227975000Y-129135000D03*
%TO.P,U1,7,OSC*%
%TO.N,unconnected-(U1-Pad7)*%
X227975000Y-127865000D03*
%TO.P,U1,8,V+*%
%TO.N,+9V*%
X227975000Y-126595000D03*
%TD*%
D16*
%TO.P,SW1,1,A*%
%TO.N,unconnected-(SW1-Pad1)*%
X244800000Y-134700000D03*
%TO.P,SW1,2,B*%
%TO.N,/SW_LED*%
X244800000Y-130000000D03*
%TO.P,SW1,3,C*%
%TO.N,GND*%
X244800000Y-125300000D03*
%TO.P,SW1,4,A*%
%TO.N,/BYP*%
X240000000Y-134700000D03*
%TO.P,SW1,5,B*%
%TO.N,/OUT*%
X240000000Y-130000000D03*
%TO.P,SW1,6,C*%
%TO.N,/RETURN*%
X240000000Y-125300000D03*
%TO.P,SW1,7,A*%
%TO.N,/BYP*%
X235200000Y-134700000D03*
%TO.P,SW1,8,B*%
%TO.N,/IN*%
X235200000Y-130000000D03*
%TO.P,SW1,9,C*%
%TO.N,/SEND*%
X235200000Y-125300000D03*
%TD*%
D17*
%TO.P,R5,1*%
%TO.N,Net-(R5-Pad1)*%
X242825000Y-142500000D03*
%TO.P,R5,2*%
%TO.N,/VOUT_NEG*%
X241175000Y-142500000D03*
%TD*%
%TO.P,R4,1*%
%TO.N,GND*%
X247825000Y-142500000D03*
%TO.P,R4,2*%
%TO.N,/ADJ_NEG*%
X246175000Y-142500000D03*
%TD*%
D18*
%TO.P,R3,1*%
%TO.N,GND*%
X232175000Y-142500000D03*
%TO.P,R3,2*%
%TO.N,/ADJ_POS*%
X233825000Y-142500000D03*
%TD*%
%TO.P,R2,1*%
%TO.N,Net-(R2-Pad1)*%
X237175000Y-142500000D03*
%TO.P,R2,2*%
%TO.N,/VOUT_POS*%
X238825000Y-142500000D03*
%TD*%
%TO.P,R1,1*%
%TO.N,+9V*%
X250675000Y-130900000D03*
%TO.P,R1,2*%
%TO.N,Net-(D1-Pad2)*%
X252325000Y-130900000D03*
%TD*%
D12*
%TO.P,P7,1,1*%
%TO.N,/VOUT_POS*%
X248500000Y-120500000D03*
%TD*%
D11*
%TO.P,P6,1,1*%
%TO.N,/VOUT_NEG*%
X252000000Y-120500000D03*
%TD*%
%TO.P,P5,1,1*%
%TO.N,/OUT*%
X255500000Y-120500000D03*
%TD*%
%TO.P,P4,1,1*%
%TO.N,/RETURN*%
X245000000Y-120500000D03*
%TD*%
%TO.P,P3,1,1*%
%TO.N,/SEND*%
X241500000Y-120500000D03*
%TD*%
%TO.P,P2,1,1*%
%TO.N,/IN*%
X238000000Y-120500000D03*
%TD*%
D12*
%TO.P,P1,1,1*%
%TO.N,+9V*%
X219500000Y-127000000D03*
%TD*%
D19*
%TO.P,D4,2,A*%
%TO.N,Net-(C1-Pad1)*%
X226270000Y-121720000D03*
%TO.P,D4,1,K*%
%TO.N,/V_DBL*%
X228370000Y-121720000D03*
%TD*%
%TO.P,D3,2,A*%
%TO.N,+9V*%
X222270000Y-121720000D03*
%TO.P,D3,1,K*%
%TO.N,Net-(C1-Pad1)*%
X224370000Y-121720000D03*
%TD*%
D20*
%TO.P,D2,2,A*%
%TO.N,GND*%
X220000000Y-123350000D03*
%TO.P,D2,1,K*%
%TO.N,+9V*%
X220000000Y-121150000D03*
%TD*%
D21*
%TO.P,D1,1,K*%
%TO.N,/SW_LED*%
X254725000Y-130000000D03*
D22*
%TO.P,D1,2,A*%
%TO.N,Net-(D1-Pad2)*%
X257265000Y-130000000D03*
%TD*%
D23*
%TO.P,C6,1*%
%TO.N,GND*%
X242000000Y-138500000D03*
%TO.P,C6,2*%
%TO.N,/VOUT_NEG*%
X242000000Y-140400000D03*
%TD*%
%TO.P,C5,1*%
%TO.N,/VOUT_POS*%
X238000000Y-138550000D03*
%TO.P,C5,2*%
%TO.N,GND*%
X238000000Y-140450000D03*
%TD*%
%TO.P,C4,1*%
%TO.N,GND*%
X231000000Y-128600000D03*
%TO.P,C4,2*%
%TO.N,/V_NEG*%
X231000000Y-130500000D03*
%TD*%
%TO.P,C3,1*%
%TO.N,/V_DBL*%
X231000000Y-121550000D03*
%TO.P,C3,2*%
%TO.N,GND*%
X231000000Y-123450000D03*
%TD*%
D24*
%TO.P,C2,2*%
%TO.N,Net-(C2-Pad2)*%
X228220000Y-124220000D03*
%TO.P,C2,1*%
%TO.N,Net-(C1-Pad2)*%
X226320000Y-124220000D03*
%TD*%
%TO.P,C1,2*%
%TO.N,Net-(C1-Pad2)*%
X224270000Y-124220000D03*
%TO.P,C1,1*%
%TO.N,Net-(C1-Pad1)*%
X222370000Y-124220000D03*
%TD*%
D25*
%TO.N,/OUT*%
X249500000Y-127800000D03*
X247000000Y-128000000D03*
%TO.N,/SW_LED*%
X249224500Y-129916026D03*
%TO.N,/V_NEG*%
X231724500Y-133524952D03*
X247275500Y-135775500D03*
%TO.N,+9V*%
X249400000Y-130900000D03*
X247325500Y-130900000D03*
X232988676Y-123986725D03*
%TO.N,GND*%
X231000000Y-126000000D03*
%TO.N,+9V*%
X225325500Y-126500000D03*
%TO.N,/V_NEG*%
X230000000Y-133500000D03*
X249000000Y-138500000D03*
%TO.N,GND*%
X230000000Y-141000000D03*
X243500000Y-139500000D03*
X236500000Y-139500000D03*
%TO.N,+9V*%
X229673645Y-126612690D03*
%TO.N,GND*%
X221000000Y-125700000D03*
%TO.N,+9V*%
X220000000Y-122500000D03*
%TO.N,GND*%
X250500000Y-141000000D03*
%TD*%
D26*
%TO.N,GND*%
X220000000Y-124700000D02*
X220000000Y-123600000D01*
X221000000Y-125700000D02*
X220000000Y-124700000D01*
D27*
%TO.N,+9V*%
X234484010Y-131500000D02*
X233000000Y-130015990D01*
X246725500Y-131500000D02*
X234484010Y-131500000D01*
X247325500Y-130900000D02*
X246725500Y-131500000D01*
X233000000Y-130015990D02*
X233000000Y-123998049D01*
X233000000Y-123998049D02*
X232988676Y-123986725D01*
X250675000Y-130900000D02*
X249400000Y-130900000D01*
%TO.N,Net-(D1-Pad2)*%
X257265000Y-131235000D02*
X257265000Y-130000000D01*
X256500000Y-132000000D02*
X257265000Y-131235000D01*
X253425000Y-132000000D02*
X256500000Y-132000000D01*
X252325000Y-130900000D02*
X253425000Y-132000000D01*
%TO.N,/SW_LED*%
X249308474Y-130000000D02*
X249224500Y-129916026D01*
X254725000Y-130000000D02*
X249308474Y-130000000D01*
%TO.N,/ADJ_POS*%
X232000000Y-141500000D02*
X226540000Y-136040000D01*
X233825000Y-141878769D02*
X233446231Y-141500000D01*
X226540000Y-136040000D02*
X226540000Y-135845000D01*
X233825000Y-142500000D02*
X233825000Y-141878769D01*
X233446231Y-141500000D02*
X232000000Y-141500000D01*
X235137500Y-141187500D02*
X233825000Y-142500000D01*
X235137500Y-140450000D02*
X235137500Y-141187500D01*
%TO.N,/V_NEG*%
X232749452Y-132500000D02*
X246000000Y-132500000D01*
X246000000Y-132500000D02*
X247275500Y-133775500D01*
X231724500Y-133524952D02*
X232749452Y-132500000D01*
X247275500Y-133775500D02*
X247275500Y-135775500D01*
%TO.N,/OUT*%
X255500000Y-122000000D02*
X255500000Y-120500000D01*
X249500000Y-128000000D02*
X255500000Y-122000000D01*
X242000000Y-128000000D02*
X247000000Y-128000000D01*
X240000000Y-130000000D02*
X242000000Y-128000000D01*
%TO.N,/VOUT_POS*%
X248500000Y-124863604D02*
X248500000Y-120500000D01*
X248050000Y-125313604D02*
X248500000Y-124863604D01*
X239550000Y-136500000D02*
X247863604Y-136500000D01*
X247863604Y-136500000D02*
X248050000Y-136313604D01*
X237500000Y-138550000D02*
X239550000Y-136500000D01*
X248050000Y-136313604D02*
X248050000Y-125313604D01*
%TO.N,/VOUT_NEG*%
X252000000Y-122000000D02*
X252000000Y-120500000D01*
X248500000Y-125500000D02*
X252000000Y-122000000D01*
X248500000Y-136500000D02*
X248500000Y-125500000D01*
X248000000Y-137000000D02*
X248500000Y-136500000D01*
X240500000Y-138000000D02*
X241500000Y-137000000D01*
X241500000Y-137000000D02*
X248000000Y-137000000D01*
X241400000Y-140400000D02*
X240500000Y-139500000D01*
X240500000Y-139500000D02*
X240500000Y-138000000D01*
X242500000Y-140400000D02*
X241400000Y-140400000D01*
%TO.N,/IN*%
X235000000Y-123500000D02*
X238000000Y-120500000D01*
X234500000Y-123500000D02*
X235000000Y-123500000D01*
%TO.N,/RETURN*%
X244800000Y-120500000D02*
X245000000Y-120500000D01*
X240000000Y-125300000D02*
X244800000Y-120500000D01*
%TO.N,/SEND*%
X236500000Y-125500000D02*
X241500000Y-120500000D01*
X235500000Y-125500000D02*
X236500000Y-125500000D01*
X235300000Y-125300000D02*
X235500000Y-125500000D01*
X235200000Y-125300000D02*
X235300000Y-125300000D01*
%TO.N,+9V*%
X219850000Y-127000000D02*
X219425000Y-127425000D01*
X221190000Y-127000000D02*
X219850000Y-127000000D01*
X221595000Y-126595000D02*
X221190000Y-127000000D01*
%TO.N,/IN*%
X233450000Y-128450000D02*
X233450000Y-124550000D01*
X233450000Y-124550000D02*
X234500000Y-123500000D01*
X235000000Y-130000000D02*
X233450000Y-128450000D01*
X235200000Y-130000000D02*
X235000000Y-130000000D01*
%TO.N,/V_DBL*%
X231000000Y-136687500D02*
X232862500Y-138550000D01*
X231000000Y-132500000D02*
X231000000Y-136687500D01*
X232050000Y-131450000D02*
X231000000Y-132500000D01*
X232050000Y-122600000D02*
X232050000Y-131450000D01*
X231000000Y-121550000D02*
X232050000Y-122600000D01*
%TO.N,/V_NEG*%
X230000000Y-131500000D02*
X230000000Y-133500000D01*
X231000000Y-130500000D02*
X230000000Y-131500000D01*
%TO.N,+9V*%
X221545000Y-122445000D02*
X222270000Y-121720000D01*
X221545000Y-124933173D02*
X221545000Y-122445000D01*
X223111827Y-126500000D02*
X221545000Y-124933173D01*
X225325500Y-126500000D02*
X223111827Y-126500000D01*
X225325500Y-126500000D02*
X221690000Y-126500000D01*
X221690000Y-126500000D02*
X221595000Y-126595000D01*
%TO.N,Net-(C2-Pad2)*%
X224095000Y-130405000D02*
X223025000Y-130405000D01*
X226500000Y-128000000D02*
X224095000Y-130405000D01*
X226500000Y-125940000D02*
X226500000Y-128000000D01*
X228220000Y-124220000D02*
X226500000Y-125940000D01*
%TO.N,Net-(C1-Pad2)*%
X226050000Y-127813604D02*
X225863604Y-128000000D01*
X226050000Y-125753604D02*
X226050000Y-127813604D01*
X225863604Y-128000000D02*
X223160000Y-128000000D01*
X226320000Y-125483604D02*
X226050000Y-125753604D01*
X226320000Y-124220000D02*
X226320000Y-125483604D01*
X223160000Y-128000000D02*
X223025000Y-127865000D01*
%TO.N,/BYP*%
X235200000Y-134700000D02*
X240000000Y-134700000D01*
%TO.N,GND*%
X231000000Y-126000000D02*
X231000000Y-128600000D01*
X231000000Y-123450000D02*
X231000000Y-126000000D01*
%TO.N,/V_NEG*%
X247137500Y-138500000D02*
X249000000Y-138500000D01*
%TO.N,/ADJ_NEG*%
X252500000Y-134000000D02*
X256695000Y-134000000D01*
X245000000Y-138500000D02*
X246000000Y-137500000D01*
X246000000Y-137500000D02*
X249000000Y-137500000D01*
X256695000Y-134000000D02*
X258540000Y-135845000D01*
X249000000Y-137500000D02*
X252500000Y-134000000D01*
X244862500Y-138500000D02*
X245000000Y-138500000D01*
%TO.N,Net-(R5-Pad1)*%
X244000000Y-141500000D02*
X247805000Y-141500000D01*
X243000000Y-142500000D02*
X244000000Y-141500000D01*
X242825000Y-142500000D02*
X243000000Y-142500000D01*
X247805000Y-141500000D02*
X253460000Y-135845000D01*
%TO.N,GND*%
X249000000Y-142500000D02*
X247825000Y-142500000D01*
X250500000Y-141000000D02*
X249000000Y-142500000D01*
X231500000Y-142500000D02*
X230000000Y-141000000D01*
X232175000Y-142500000D02*
X231500000Y-142500000D01*
%TO.N,Net-(R2-Pad1)*%
X224000000Y-143500000D02*
X236175000Y-143500000D01*
X236175000Y-143500000D02*
X237175000Y-142500000D01*
X221460000Y-140960000D02*
X224000000Y-143500000D01*
X221460000Y-135845000D02*
X221460000Y-140960000D01*
%TO.N,/ADJ_POS*%
X226540000Y-138385000D02*
X224000000Y-140925000D01*
X226540000Y-135845000D02*
X226540000Y-138385000D01*
%TO.N,/V_DBL*%
X231950000Y-138550000D02*
X232862500Y-138550000D01*
X231500000Y-140000000D02*
X231500000Y-139000000D01*
X231950000Y-140450000D02*
X231500000Y-140000000D01*
X231500000Y-139000000D02*
X231950000Y-138550000D01*
X232862500Y-140450000D02*
X231950000Y-140450000D01*
%TO.N,GND*%
X245853249Y-139500000D02*
X246753249Y-140400000D01*
X243500000Y-139500000D02*
X245853249Y-139500000D01*
X242500000Y-138500000D02*
X243500000Y-139500000D01*
X242000000Y-138500000D02*
X242500000Y-138500000D01*
X246753249Y-140400000D02*
X247137500Y-140400000D01*
X236500000Y-139500000D02*
X236550000Y-139500000D01*
%TO.N,/VOUT_POS*%
X239050000Y-139600000D02*
X238000000Y-138550000D01*
X239050000Y-142450000D02*
X239050000Y-139600000D01*
X239000000Y-142500000D02*
X239050000Y-142450000D01*
X238825000Y-142500000D02*
X239000000Y-142500000D01*
%TO.N,GND*%
X232862500Y-139500000D02*
X236500000Y-139500000D01*
X236550000Y-139500000D02*
X237500000Y-140450000D01*
X237500000Y-140450000D02*
X238050000Y-140450000D01*
%TO.N,/VOUT_NEG*%
X241175000Y-141725000D02*
X242500000Y-140400000D01*
X241175000Y-142500000D02*
X241175000Y-141725000D01*
%TO.N,Net-(C1-Pad1)*%
X222500000Y-123590000D02*
X224370000Y-121720000D01*
X222500000Y-124500000D02*
X222500000Y-123590000D01*
X222370000Y-124370000D02*
X222500000Y-124500000D01*
X222370000Y-124220000D02*
X222370000Y-124370000D01*
%TO.N,+9V*%
X229673645Y-126612690D02*
X229655955Y-126595000D01*
X229655955Y-126595000D02*
X227975000Y-126595000D01*
%TO.N,Net-(C1-Pad2)*%
X226320000Y-124220000D02*
X224270000Y-124220000D01*
%TO.N,/V_NEG*%
X231000000Y-130500000D02*
X228070000Y-130500000D01*
X228070000Y-130500000D02*
X227975000Y-130405000D01*
%TO.N,GND*%
X220500000Y-129000000D02*
X219500000Y-130000000D01*
X223025000Y-129025000D02*
X223000000Y-129000000D01*
X223000000Y-129000000D02*
X220500000Y-129000000D01*
X223025000Y-129135000D02*
X223025000Y-129025000D01*
X220000000Y-123600000D02*
X220000000Y-123500000D01*
D26*
%TO.N,+9V*%
X220000000Y-122500000D02*
X220000000Y-121400000D01*
D27*
X221595000Y-126595000D02*
X223025000Y-126595000D01*
%TO.N,Net-(C1-Pad1)*%
X226270000Y-121720000D02*
X224370000Y-121720000D01*
%TO.N,/V_DBL*%
X231000000Y-121550000D02*
X230830000Y-121720000D01*
X230830000Y-121720000D02*
X228370000Y-121720000D01*
%TO.N,/ADJ_NEG*%
X256000000Y-140925000D02*
X253175000Y-140925000D01*
X253175000Y-140925000D02*
X250800000Y-143300000D01*
X256000000Y-138385000D02*
X256000000Y-140925000D01*
X258540000Y-135845000D02*
X256000000Y-138385000D01*
X246975000Y-143300000D02*
X250800000Y-143300000D01*
X246175000Y-142500000D02*
X246975000Y-143300000D01*
%TO.N,/V_NEG*%
X247137500Y-138500000D02*
X247137500Y-139450000D01*
%TO.N,/VOUT_POS*%
X237550000Y-138500000D02*
X237500000Y-138550000D01*
X237500000Y-138550000D02*
X235137500Y-138550000D01*
%TO.N,/ADJ_NEG*%
X244950000Y-138500000D02*
X245000000Y-138450000D01*
X244862500Y-138500000D02*
X244950000Y-138500000D01*
%TO.N,/VOUT_NEG*%
X242375000Y-140275000D02*
X242500000Y-140400000D01*
X242500000Y-140400000D02*
X244862500Y-140400000D01*
%TD*%
M02*
