M48
; DRILL file {KiCad (6.0.7)} date Mon Nov 14 21:42:34 2022
; FORMAT={-:-/ absolute / inch / decimal}
; #@! TF.CreationDate,2022-11-14T21:42:34-08:00
; #@! TF.GenerationSoftware,Kicad,Pcbnew,(6.0.7)
; #@! TF.FileFunction,Plated,1,2,PTH
FMAT,2
INCH
; #@! TA.AperFunction,Plated,PTH,ViaDrill
T1C0.0157
; #@! TA.AperFunction,Plated,PTH,ComponentDrill
T2C0.0354
; #@! TA.AperFunction,Plated,PTH,ComponentDrill
T3C0.0394
%
G90
G05
T1
X8.6614Y-4.8228
X8.7008Y-4.9488
X8.8711Y-4.9803
X9.0423Y-4.9848
X9.0551Y-5.2559
X9.0551Y-5.5512
X9.0945Y-4.9606
X9.123Y-5.2569
X9.1728Y-4.8814
X9.311Y-5.4921
X9.5866Y-5.4921
X9.7244Y-5.0394
X9.7353Y-5.3455
X9.7372Y-5.1535
X9.8031Y-5.4528
X9.812Y-5.1148
X9.8189Y-5.1535
X9.8228Y-5.0315
X9.8622Y-5.5512
T2
X8.6417Y-5.0
X8.6417Y-5.1378
X8.7189Y-5.3482
X8.8189Y-5.5482
X8.9189Y-5.3482
X9.2323Y-4.7441
X9.3701Y-4.7441
X9.5079Y-4.7441
X9.6457Y-4.7441
X9.7835Y-4.7441
X9.9213Y-4.7441
X9.9787Y-5.3482
X10.0285Y-5.1181
X10.0591Y-4.7441
X10.0787Y-5.5482
X10.1285Y-5.1181
X10.1787Y-5.3482
X10.1969Y-4.7441
T3
G00X9.2844Y-4.9331
M15
G01X9.2352Y-4.9331
M16
G05
G00X9.2844Y-5.1181
M15
G01X9.2352Y-5.1181
M16
G05
G00X9.2844Y-5.3031
M15
G01X9.2352Y-5.3031
M16
G05
G00X9.4734Y-4.9331
M15
G01X9.4242Y-4.9331
M16
G05
G00X9.4734Y-5.1181
M15
G01X9.4242Y-5.1181
M16
G05
G00X9.4734Y-5.3031
M15
G01X9.4242Y-5.3031
M16
G05
G00X9.6624Y-4.9331
M15
G01X9.6132Y-4.9331
M16
G05
G00X9.6624Y-5.1181
M15
G01X9.6132Y-5.1181
M16
G05
G00X9.6624Y-5.3031
M15
G01X9.6132Y-5.3031
M16
G05
T0
M30
