%TF.GenerationSoftware,KiCad,Pcbnew,(6.0.7)*%
%TF.CreationDate,2022-11-14T21:42:39-08:00*%
%TF.ProjectId,3PDT_Regulator,33504454-5f52-4656-9775-6c61746f722e,rev?*%
%TF.SameCoordinates,Original*%
%TF.FileFunction,Copper,L2,Bot*%
%TF.FilePolarity,Positive*%
%FSLAX46Y46*%
G04 Gerber Fmt 4.6, Leading zero omitted, Abs format (unit mm)*
G04 Created by KiCad (PCBNEW (6.0.7)) date 2022-11-14 21:42:39*
%MOMM*%
%LPD*%
G01*
G04 APERTURE LIST*
G04 Aperture macros list*
%AMRoundRect*
0 Rectangle with rounded corners*
0 $1 Rounding radius*
0 $2 $3 $4 $5 $6 $7 $8 $9 X,Y pos of 4 corners*
0 Add a 4 corners polygon primitive as box body*
4,1,4,$2,$3,$4,$5,$6,$7,$8,$9,$2,$3,0*
0 Add four circle primitives for the rounded corners*
1,1,$1+$1,$2,$3*
1,1,$1+$1,$4,$5*
1,1,$1+$1,$6,$7*
1,1,$1+$1,$8,$9*
0 Add four rect primitives between the rounded corners*
20,1,$1+$1,$2,$3,$4,$5,0*
20,1,$1+$1,$4,$5,$6,$7,0*
20,1,$1+$1,$6,$7,$8,$9,0*
20,1,$1+$1,$8,$9,$2,$3,0*%
G04 Aperture macros list end*
%TA.AperFunction,ComponentPad*%
%ADD10C,1.440000*%
%TD*%
%TA.AperFunction,ComponentPad*%
%ADD11RoundRect,0.250000X-0.500000X-0.500000X0.500000X-0.500000X0.500000X0.500000X-0.500000X0.500000X0*%
%TD*%
%TA.AperFunction,ComponentPad*%
%ADD12RoundRect,0.250000X0.500000X0.500000X-0.500000X0.500000X-0.500000X-0.500000X0.500000X-0.500000X0*%
%TD*%
%TA.AperFunction,ComponentPad*%
%ADD13O,2.850000X1.600000*%
%TD*%
%TA.AperFunction,ComponentPad*%
%ADD14R,1.800000X1.800000*%
%TD*%
%TA.AperFunction,ComponentPad*%
%ADD15C,1.800000*%
%TD*%
%TA.AperFunction,ViaPad*%
%ADD16C,0.800000*%
%TD*%
%TA.AperFunction,Conductor*%
%ADD17C,0.250000*%
%TD*%
%TA.AperFunction,Conductor*%
%ADD18C,0.500000*%
%TD*%
G04 APERTURE END LIST*
D10*
%TO.P,RV2,1,1*%
%TO.N,Net-(R5-Pad1)*%
X253460000Y-135845000D03*
%TO.P,RV2,2,2*%
%TO.N,/ADJ_NEG*%
X256000000Y-140925000D03*
%TO.P,RV2,3,3*%
X258540000Y-135845000D03*
%TD*%
%TO.P,RV1,1,1*%
%TO.N,Net-(R2-Pad1)*%
X221460000Y-135845000D03*
%TO.P,RV1,2,2*%
%TO.N,/ADJ_POS*%
X224000000Y-140925000D03*
%TO.P,RV1,3,3*%
X226540000Y-135845000D03*
%TD*%
D11*
%TO.P,P10,1,1*%
%TO.N,GND*%
X259000000Y-120500000D03*
%TD*%
%TO.P,P9,1,1*%
%TO.N,GND*%
X234500000Y-120500000D03*
%TD*%
D12*
%TO.P,P8,1,1*%
%TO.N,GND*%
X219500000Y-130500000D03*
%TD*%
D13*
%TO.P,SW1,1,A*%
%TO.N,unconnected-(SW1-Pad1)*%
X244800000Y-134700000D03*
%TO.P,SW1,2,B*%
%TO.N,/SW_LED*%
X244800000Y-130000000D03*
%TO.P,SW1,3,C*%
%TO.N,GND*%
X244800000Y-125300000D03*
%TO.P,SW1,4,A*%
%TO.N,/BYP*%
X240000000Y-134700000D03*
%TO.P,SW1,5,B*%
%TO.N,/OUT*%
X240000000Y-130000000D03*
%TO.P,SW1,6,C*%
%TO.N,/RETURN*%
X240000000Y-125300000D03*
%TO.P,SW1,7,A*%
%TO.N,/BYP*%
X235200000Y-134700000D03*
%TO.P,SW1,8,B*%
%TO.N,/IN*%
X235200000Y-130000000D03*
%TO.P,SW1,9,C*%
%TO.N,/SEND*%
X235200000Y-125300000D03*
%TD*%
D12*
%TO.P,P7,1,1*%
%TO.N,/VOUT_POS*%
X248500000Y-120500000D03*
%TD*%
D11*
%TO.P,P6,1,1*%
%TO.N,/VOUT_NEG*%
X252000000Y-120500000D03*
%TD*%
%TO.P,P5,1,1*%
%TO.N,/OUT*%
X255500000Y-120500000D03*
%TD*%
%TO.P,P4,1,1*%
%TO.N,/RETURN*%
X245000000Y-120500000D03*
%TD*%
%TO.P,P3,1,1*%
%TO.N,/SEND*%
X241500000Y-120500000D03*
%TD*%
%TO.P,P2,1,1*%
%TO.N,/IN*%
X238000000Y-120500000D03*
%TD*%
D12*
%TO.P,P1,1,1*%
%TO.N,+9V*%
X219500000Y-127000000D03*
%TD*%
D14*
%TO.P,D1,1,K*%
%TO.N,/SW_LED*%
X254725000Y-130000000D03*
D15*
%TO.P,D1,2,A*%
%TO.N,Net-(D1-Pad2)*%
X257265000Y-130000000D03*
%TD*%
D16*
%TO.N,/OUT*%
X249500000Y-127800000D03*
X247000000Y-128000000D03*
%TO.N,/SW_LED*%
X249224500Y-129916026D03*
%TO.N,/V_NEG*%
X231724500Y-133524952D03*
X247275500Y-135775500D03*
%TO.N,+9V*%
X249400000Y-130900000D03*
X247325500Y-130900000D03*
X232988676Y-123986725D03*
%TO.N,GND*%
X231000000Y-126000000D03*
%TO.N,+9V*%
X225325500Y-126500000D03*
%TO.N,/V_NEG*%
X230000000Y-133500000D03*
X249000000Y-138500000D03*
%TO.N,GND*%
X230000000Y-141000000D03*
X243500000Y-139500000D03*
X236500000Y-139500000D03*
%TO.N,+9V*%
X229673645Y-126612690D03*
%TO.N,GND*%
X221000000Y-125700000D03*
%TO.N,+9V*%
X220000000Y-122500000D03*
%TO.N,GND*%
X250500000Y-141000000D03*
%TD*%
D17*
%TO.N,+9V*%
X247325500Y-130900000D02*
X249400000Y-130900000D01*
%TO.N,/SW_LED*%
X249140526Y-130000000D02*
X244800000Y-130000000D01*
X249224500Y-129916026D02*
X249140526Y-130000000D01*
%TO.N,/OUT*%
X247000000Y-128000000D02*
X249500000Y-128000000D01*
%TO.N,+9V*%
X230000000Y-125000000D02*
X229673645Y-125326355D01*
X232988676Y-124011324D02*
X232000000Y-125000000D01*
X229673645Y-125326355D02*
X229673645Y-126612690D01*
X232988676Y-123986725D02*
X232988676Y-124011324D01*
X232000000Y-125000000D02*
X230000000Y-125000000D01*
X219500000Y-127500000D02*
X219000000Y-127000000D01*
D18*
X219000000Y-127000000D02*
X219500000Y-127000000D01*
D17*
X219275000Y-127275000D02*
X219500000Y-127500000D01*
D18*
X219500000Y-127000000D02*
X220000000Y-126500000D01*
X220000000Y-126500000D02*
X220000000Y-122500000D01*
D17*
%TO.N,/V_NEG*%
X231699548Y-133500000D02*
X230000000Y-133500000D01*
X231724500Y-133524952D02*
X231699548Y-133500000D01*
X247275500Y-135775500D02*
X249000000Y-137500000D01*
X249000000Y-137500000D02*
X249000000Y-138500000D01*
%TO.N,+9V*%
X229612690Y-126612690D02*
X229673645Y-126612690D01*
X229500000Y-126500000D02*
X229612690Y-126612690D01*
X225325500Y-126500000D02*
X229500000Y-126500000D01*
%TD*%
%TA.AperFunction,Conductor*%
%TO.N,GND*%
G36*
X233437429Y-119274502D02*
G01*
X233483922Y-119328158D01*
X233494026Y-119398432D01*
X233464532Y-119463012D01*
X233458481Y-119469518D01*
X233406261Y-119521829D01*
X233397249Y-119533240D01*
X233312184Y-119671243D01*
X233306037Y-119684424D01*
X233254862Y-119838710D01*
X233251995Y-119852086D01*
X233242328Y-119946438D01*
X233242000Y-119952855D01*
X233242000Y-120227885D01*
X233246475Y-120243124D01*
X233247865Y-120244329D01*
X233255548Y-120246000D01*
X235739884Y-120246000D01*
X235755123Y-120241525D01*
X235756328Y-120240135D01*
X235757999Y-120232452D01*
X235757999Y-119952905D01*
X235757662Y-119946386D01*
X235747743Y-119850794D01*
X235744851Y-119837400D01*
X235693412Y-119683216D01*
X235687239Y-119670038D01*
X235601937Y-119532193D01*
X235592901Y-119520792D01*
X235541693Y-119469673D01*
X235507614Y-119407390D01*
X235512617Y-119336570D01*
X235555114Y-119279698D01*
X235621613Y-119254829D01*
X235630711Y-119254500D01*
X237361968Y-119254500D01*
X237430089Y-119274502D01*
X237476582Y-119328158D01*
X237486686Y-119398432D01*
X237457192Y-119463012D01*
X237393006Y-119501935D01*
X237390552Y-119502202D01*
X237383159Y-119504974D01*
X237383157Y-119504974D01*
X237344954Y-119519296D01*
X237255236Y-119552929D01*
X237248057Y-119558309D01*
X237248054Y-119558311D01*
X237160023Y-119624287D01*
X237139596Y-119639596D01*
X237134215Y-119646776D01*
X237058311Y-119748054D01*
X237058309Y-119748057D01*
X237052929Y-119755236D01*
X237002202Y-119890552D01*
X236995500Y-119952244D01*
X236995500Y-121047756D01*
X237002202Y-121109448D01*
X237052929Y-121244764D01*
X237058309Y-121251943D01*
X237058311Y-121251946D01*
X237105999Y-121315576D01*
X237139596Y-121360404D01*
X237146776Y-121365785D01*
X237248054Y-121441689D01*
X237248057Y-121441691D01*
X237255236Y-121447071D01*
X237338196Y-121478171D01*
X237383157Y-121495026D01*
X237383159Y-121495026D01*
X237390552Y-121497798D01*
X237398402Y-121498651D01*
X237398403Y-121498651D01*
X237448847Y-121504131D01*
X237452244Y-121504500D01*
X238547756Y-121504500D01*
X238551153Y-121504131D01*
X238601597Y-121498651D01*
X238601598Y-121498651D01*
X238609448Y-121497798D01*
X238616841Y-121495026D01*
X238616843Y-121495026D01*
X238661804Y-121478171D01*
X238744764Y-121447071D01*
X238751943Y-121441691D01*
X238751946Y-121441689D01*
X238853224Y-121365785D01*
X238860404Y-121360404D01*
X238894001Y-121315576D01*
X238941689Y-121251946D01*
X238941691Y-121251943D01*
X238947071Y-121244764D01*
X238997798Y-121109448D01*
X239004500Y-121047756D01*
X239004500Y-119952244D01*
X238997798Y-119890552D01*
X238947071Y-119755236D01*
X238941691Y-119748057D01*
X238941689Y-119748054D01*
X238865785Y-119646776D01*
X238860404Y-119639596D01*
X238839977Y-119624287D01*
X238751946Y-119558311D01*
X238751943Y-119558309D01*
X238744764Y-119552929D01*
X238655046Y-119519296D01*
X238616843Y-119504974D01*
X238616841Y-119504974D01*
X238609448Y-119502202D01*
X238606851Y-119501920D01*
X238547239Y-119467865D01*
X238514419Y-119404909D01*
X238520845Y-119334204D01*
X238564478Y-119278198D01*
X238638032Y-119254500D01*
X240861968Y-119254500D01*
X240930089Y-119274502D01*
X240976582Y-119328158D01*
X240986686Y-119398432D01*
X240957192Y-119463012D01*
X240893006Y-119501935D01*
X240890552Y-119502202D01*
X240883159Y-119504974D01*
X240883157Y-119504974D01*
X240844954Y-119519296D01*
X240755236Y-119552929D01*
X240748057Y-119558309D01*
X240748054Y-119558311D01*
X240660023Y-119624287D01*
X240639596Y-119639596D01*
X240634215Y-119646776D01*
X240558311Y-119748054D01*
X240558309Y-119748057D01*
X240552929Y-119755236D01*
X240502202Y-119890552D01*
X240495500Y-119952244D01*
X240495500Y-121047756D01*
X240502202Y-121109448D01*
X240552929Y-121244764D01*
X240558309Y-121251943D01*
X240558311Y-121251946D01*
X240605999Y-121315576D01*
X240639596Y-121360404D01*
X240646776Y-121365785D01*
X240748054Y-121441689D01*
X240748057Y-121441691D01*
X240755236Y-121447071D01*
X240838196Y-121478171D01*
X240883157Y-121495026D01*
X240883159Y-121495026D01*
X240890552Y-121497798D01*
X240898402Y-121498651D01*
X240898403Y-121498651D01*
X240948847Y-121504131D01*
X240952244Y-121504500D01*
X242047756Y-121504500D01*
X242051153Y-121504131D01*
X242101597Y-121498651D01*
X242101598Y-121498651D01*
X242109448Y-121497798D01*
X242116841Y-121495026D01*
X242116843Y-121495026D01*
X242161804Y-121478171D01*
X242244764Y-121447071D01*
X242251943Y-121441691D01*
X242251946Y-121441689D01*
X242353224Y-121365785D01*
X242360404Y-121360404D01*
X242394001Y-121315576D01*
X242441689Y-121251946D01*
X242441691Y-121251943D01*
X242447071Y-121244764D01*
X242497798Y-121109448D01*
X242504500Y-121047756D01*
X242504500Y-119952244D01*
X242497798Y-119890552D01*
X242447071Y-119755236D01*
X242441691Y-119748057D01*
X242441689Y-119748054D01*
X242365785Y-119646776D01*
X242360404Y-119639596D01*
X242339977Y-119624287D01*
X242251946Y-119558311D01*
X242251943Y-119558309D01*
X242244764Y-119552929D01*
X242155046Y-119519296D01*
X242116843Y-119504974D01*
X242116841Y-119504974D01*
X242109448Y-119502202D01*
X242106851Y-119501920D01*
X242047239Y-119467865D01*
X242014419Y-119404909D01*
X242020845Y-119334204D01*
X242064478Y-119278198D01*
X242138032Y-119254500D01*
X244361968Y-119254500D01*
X244430089Y-119274502D01*
X244476582Y-119328158D01*
X244486686Y-119398432D01*
X244457192Y-119463012D01*
X244393006Y-119501935D01*
X244390552Y-119502202D01*
X244383159Y-119504974D01*
X244383157Y-119504974D01*
X244344954Y-119519296D01*
X244255236Y-119552929D01*
X244248057Y-119558309D01*
X244248054Y-119558311D01*
X244160023Y-119624287D01*
X244139596Y-119639596D01*
X244134215Y-119646776D01*
X244058311Y-119748054D01*
X244058309Y-119748057D01*
X244052929Y-119755236D01*
X244002202Y-119890552D01*
X243995500Y-119952244D01*
X243995500Y-121047756D01*
X244002202Y-121109448D01*
X244052929Y-121244764D01*
X244058309Y-121251943D01*
X244058311Y-121251946D01*
X244105999Y-121315576D01*
X244139596Y-121360404D01*
X244146776Y-121365785D01*
X244248054Y-121441689D01*
X244248057Y-121441691D01*
X244255236Y-121447071D01*
X244338196Y-121478171D01*
X244383157Y-121495026D01*
X244383159Y-121495026D01*
X244390552Y-121497798D01*
X244398402Y-121498651D01*
X244398403Y-121498651D01*
X244448847Y-121504131D01*
X244452244Y-121504500D01*
X245547756Y-121504500D01*
X245551153Y-121504131D01*
X245601597Y-121498651D01*
X245601598Y-121498651D01*
X245609448Y-121497798D01*
X245616841Y-121495026D01*
X245616843Y-121495026D01*
X245661804Y-121478171D01*
X245744764Y-121447071D01*
X245751943Y-121441691D01*
X245751946Y-121441689D01*
X245853224Y-121365785D01*
X245860404Y-121360404D01*
X245894001Y-121315576D01*
X245941689Y-121251946D01*
X245941691Y-121251943D01*
X245947071Y-121244764D01*
X245997798Y-121109448D01*
X246004500Y-121047756D01*
X246004500Y-119952244D01*
X245997798Y-119890552D01*
X245947071Y-119755236D01*
X245941691Y-119748057D01*
X245941689Y-119748054D01*
X245865785Y-119646776D01*
X245860404Y-119639596D01*
X245839977Y-119624287D01*
X245751946Y-119558311D01*
X245751943Y-119558309D01*
X245744764Y-119552929D01*
X245655046Y-119519296D01*
X245616843Y-119504974D01*
X245616841Y-119504974D01*
X245609448Y-119502202D01*
X245606851Y-119501920D01*
X245547239Y-119467865D01*
X245514419Y-119404909D01*
X245520845Y-119334204D01*
X245564478Y-119278198D01*
X245638032Y-119254500D01*
X247861968Y-119254500D01*
X247930089Y-119274502D01*
X247976582Y-119328158D01*
X247986686Y-119398432D01*
X247957192Y-119463012D01*
X247893006Y-119501935D01*
X247890552Y-119502202D01*
X247883159Y-119504974D01*
X247883157Y-119504974D01*
X247844954Y-119519296D01*
X247755236Y-119552929D01*
X247748057Y-119558309D01*
X247748054Y-119558311D01*
X247660023Y-119624287D01*
X247639596Y-119639596D01*
X247634215Y-119646776D01*
X247558311Y-119748054D01*
X247558309Y-119748057D01*
X247552929Y-119755236D01*
X247502202Y-119890552D01*
X247495500Y-119952244D01*
X247495500Y-121047756D01*
X247502202Y-121109448D01*
X247552929Y-121244764D01*
X247558309Y-121251943D01*
X247558311Y-121251946D01*
X247605999Y-121315576D01*
X247639596Y-121360404D01*
X247646776Y-121365785D01*
X247748054Y-121441689D01*
X247748057Y-121441691D01*
X247755236Y-121447071D01*
X247838196Y-121478171D01*
X247883157Y-121495026D01*
X247883159Y-121495026D01*
X247890552Y-121497798D01*
X247898402Y-121498651D01*
X247898403Y-121498651D01*
X247948847Y-121504131D01*
X247952244Y-121504500D01*
X249047756Y-121504500D01*
X249051153Y-121504131D01*
X249101597Y-121498651D01*
X249101598Y-121498651D01*
X249109448Y-121497798D01*
X249116841Y-121495026D01*
X249116843Y-121495026D01*
X249161804Y-121478171D01*
X249244764Y-121447071D01*
X249251943Y-121441691D01*
X249251946Y-121441689D01*
X249353224Y-121365785D01*
X249360404Y-121360404D01*
X249394001Y-121315576D01*
X249441689Y-121251946D01*
X249441691Y-121251943D01*
X249447071Y-121244764D01*
X249497798Y-121109448D01*
X249504500Y-121047756D01*
X249504500Y-119952244D01*
X249497798Y-119890552D01*
X249447071Y-119755236D01*
X249441691Y-119748057D01*
X249441689Y-119748054D01*
X249365785Y-119646776D01*
X249360404Y-119639596D01*
X249339977Y-119624287D01*
X249251946Y-119558311D01*
X249251943Y-119558309D01*
X249244764Y-119552929D01*
X249155046Y-119519296D01*
X249116843Y-119504974D01*
X249116841Y-119504974D01*
X249109448Y-119502202D01*
X249106851Y-119501920D01*
X249047239Y-119467865D01*
X249014419Y-119404909D01*
X249020845Y-119334204D01*
X249064478Y-119278198D01*
X249138032Y-119254500D01*
X251361968Y-119254500D01*
X251430089Y-119274502D01*
X251476582Y-119328158D01*
X251486686Y-119398432D01*
X251457192Y-119463012D01*
X251393006Y-119501935D01*
X251390552Y-119502202D01*
X251383159Y-119504974D01*
X251383157Y-119504974D01*
X251344954Y-119519296D01*
X251255236Y-119552929D01*
X251248057Y-119558309D01*
X251248054Y-119558311D01*
X251160023Y-119624287D01*
X251139596Y-119639596D01*
X251134215Y-119646776D01*
X251058311Y-119748054D01*
X251058309Y-119748057D01*
X251052929Y-119755236D01*
X251002202Y-119890552D01*
X250995500Y-119952244D01*
X250995500Y-121047756D01*
X251002202Y-121109448D01*
X251052929Y-121244764D01*
X251058309Y-121251943D01*
X251058311Y-121251946D01*
X251105999Y-121315576D01*
X251139596Y-121360404D01*
X251146776Y-121365785D01*
X251248054Y-121441689D01*
X251248057Y-121441691D01*
X251255236Y-121447071D01*
X251338196Y-121478171D01*
X251383157Y-121495026D01*
X251383159Y-121495026D01*
X251390552Y-121497798D01*
X251398402Y-121498651D01*
X251398403Y-121498651D01*
X251448847Y-121504131D01*
X251452244Y-121504500D01*
X252547756Y-121504500D01*
X252551153Y-121504131D01*
X252601597Y-121498651D01*
X252601598Y-121498651D01*
X252609448Y-121497798D01*
X252616841Y-121495026D01*
X252616843Y-121495026D01*
X252661804Y-121478171D01*
X252744764Y-121447071D01*
X252751943Y-121441691D01*
X252751946Y-121441689D01*
X252853224Y-121365785D01*
X252860404Y-121360404D01*
X252894001Y-121315576D01*
X252941689Y-121251946D01*
X252941691Y-121251943D01*
X252947071Y-121244764D01*
X252997798Y-121109448D01*
X253004500Y-121047756D01*
X253004500Y-119952244D01*
X252997798Y-119890552D01*
X252947071Y-119755236D01*
X252941691Y-119748057D01*
X252941689Y-119748054D01*
X252865785Y-119646776D01*
X252860404Y-119639596D01*
X252839977Y-119624287D01*
X252751946Y-119558311D01*
X252751943Y-119558309D01*
X252744764Y-119552929D01*
X252655046Y-119519296D01*
X252616843Y-119504974D01*
X252616841Y-119504974D01*
X252609448Y-119502202D01*
X252606851Y-119501920D01*
X252547239Y-119467865D01*
X252514419Y-119404909D01*
X252520845Y-119334204D01*
X252564478Y-119278198D01*
X252638032Y-119254500D01*
X254861968Y-119254500D01*
X254930089Y-119274502D01*
X254976582Y-119328158D01*
X254986686Y-119398432D01*
X254957192Y-119463012D01*
X254893006Y-119501935D01*
X254890552Y-119502202D01*
X254883159Y-119504974D01*
X254883157Y-119504974D01*
X254844954Y-119519296D01*
X254755236Y-119552929D01*
X254748057Y-119558309D01*
X254748054Y-119558311D01*
X254660023Y-119624287D01*
X254639596Y-119639596D01*
X254634215Y-119646776D01*
X254558311Y-119748054D01*
X254558309Y-119748057D01*
X254552929Y-119755236D01*
X254502202Y-119890552D01*
X254495500Y-119952244D01*
X254495500Y-121047756D01*
X254502202Y-121109448D01*
X254552929Y-121244764D01*
X254558309Y-121251943D01*
X254558311Y-121251946D01*
X254605999Y-121315576D01*
X254639596Y-121360404D01*
X254646776Y-121365785D01*
X254748054Y-121441689D01*
X254748057Y-121441691D01*
X254755236Y-121447071D01*
X254838196Y-121478171D01*
X254883157Y-121495026D01*
X254883159Y-121495026D01*
X254890552Y-121497798D01*
X254898402Y-121498651D01*
X254898403Y-121498651D01*
X254948847Y-121504131D01*
X254952244Y-121504500D01*
X256047756Y-121504500D01*
X256051153Y-121504131D01*
X256101597Y-121498651D01*
X256101598Y-121498651D01*
X256109448Y-121497798D01*
X256116841Y-121495026D01*
X256116843Y-121495026D01*
X256161804Y-121478171D01*
X256244764Y-121447071D01*
X256251943Y-121441691D01*
X256251946Y-121441689D01*
X256353224Y-121365785D01*
X256360404Y-121360404D01*
X256394001Y-121315576D01*
X256441689Y-121251946D01*
X256441691Y-121251943D01*
X256447071Y-121244764D01*
X256497798Y-121109448D01*
X256504500Y-121047756D01*
X256504500Y-121047095D01*
X257742001Y-121047095D01*
X257742338Y-121053614D01*
X257752257Y-121149206D01*
X257755149Y-121162600D01*
X257806588Y-121316784D01*
X257812761Y-121329962D01*
X257898063Y-121467807D01*
X257907099Y-121479208D01*
X258021829Y-121593739D01*
X258033240Y-121602751D01*
X258171243Y-121687816D01*
X258184424Y-121693963D01*
X258338710Y-121745138D01*
X258352086Y-121748005D01*
X258446438Y-121757672D01*
X258452854Y-121758000D01*
X258727885Y-121758000D01*
X258743124Y-121753525D01*
X258744329Y-121752135D01*
X258746000Y-121744452D01*
X258746000Y-121739884D01*
X259254000Y-121739884D01*
X259258475Y-121755123D01*
X259259865Y-121756328D01*
X259267548Y-121757999D01*
X259547095Y-121757999D01*
X259553614Y-121757662D01*
X259649206Y-121747743D01*
X259662600Y-121744851D01*
X259816784Y-121693412D01*
X259829962Y-121687239D01*
X259967807Y-121601937D01*
X259979208Y-121592901D01*
X260093739Y-121478171D01*
X260102751Y-121466760D01*
X260187816Y-121328757D01*
X260193963Y-121315576D01*
X260245138Y-121161290D01*
X260248005Y-121147914D01*
X260257672Y-121053562D01*
X260258000Y-121047146D01*
X260258000Y-120772115D01*
X260253525Y-120756876D01*
X260252135Y-120755671D01*
X260244452Y-120754000D01*
X259272115Y-120754000D01*
X259256876Y-120758475D01*
X259255671Y-120759865D01*
X259254000Y-120767548D01*
X259254000Y-121739884D01*
X258746000Y-121739884D01*
X258746000Y-120772115D01*
X258741525Y-120756876D01*
X258740135Y-120755671D01*
X258732452Y-120754000D01*
X257760116Y-120754000D01*
X257744877Y-120758475D01*
X257743672Y-120759865D01*
X257742001Y-120767548D01*
X257742001Y-121047095D01*
X256504500Y-121047095D01*
X256504500Y-119952244D01*
X256497798Y-119890552D01*
X256447071Y-119755236D01*
X256441691Y-119748057D01*
X256441689Y-119748054D01*
X256365785Y-119646776D01*
X256360404Y-119639596D01*
X256339977Y-119624287D01*
X256251946Y-119558311D01*
X256251943Y-119558309D01*
X256244764Y-119552929D01*
X256155046Y-119519296D01*
X256116843Y-119504974D01*
X256116841Y-119504974D01*
X256109448Y-119502202D01*
X256106851Y-119501920D01*
X256047239Y-119467865D01*
X256014419Y-119404909D01*
X256020845Y-119334204D01*
X256064478Y-119278198D01*
X256138032Y-119254500D01*
X257869308Y-119254500D01*
X257937429Y-119274502D01*
X257983922Y-119328158D01*
X257994026Y-119398432D01*
X257964532Y-119463012D01*
X257958481Y-119469518D01*
X257906261Y-119521829D01*
X257897249Y-119533240D01*
X257812184Y-119671243D01*
X257806037Y-119684424D01*
X257754862Y-119838710D01*
X257751995Y-119852086D01*
X257742328Y-119946438D01*
X257742000Y-119952855D01*
X257742000Y-120227885D01*
X257746475Y-120243124D01*
X257747865Y-120244329D01*
X257755548Y-120246000D01*
X260239884Y-120246000D01*
X260255123Y-120241525D01*
X260256328Y-120240135D01*
X260257999Y-120232452D01*
X260257999Y-119952905D01*
X260257662Y-119946386D01*
X260247743Y-119850794D01*
X260244851Y-119837400D01*
X260193412Y-119683216D01*
X260187239Y-119670038D01*
X260101937Y-119532193D01*
X260092901Y-119520792D01*
X260041693Y-119469673D01*
X260007614Y-119407390D01*
X260012617Y-119336570D01*
X260055114Y-119279698D01*
X260121613Y-119254829D01*
X260130711Y-119254500D01*
X261619500Y-119254500D01*
X261687621Y-119274502D01*
X261734114Y-119328158D01*
X261745500Y-119380500D01*
X261745500Y-144119500D01*
X261725498Y-144187621D01*
X261671842Y-144234114D01*
X261619500Y-144245500D01*
X218380500Y-144245500D01*
X218312379Y-144225498D01*
X218265886Y-144171842D01*
X218254500Y-144119500D01*
X218254500Y-140911328D01*
X223020880Y-140911328D01*
X223036872Y-141101767D01*
X223089549Y-141285473D01*
X223092367Y-141290955D01*
X223092368Y-141290959D01*
X223174085Y-141449963D01*
X223174088Y-141449967D01*
X223176905Y-141455449D01*
X223295612Y-141605220D01*
X223300306Y-141609215D01*
X223324086Y-141629453D01*
X223441149Y-141729082D01*
X223446527Y-141732088D01*
X223446529Y-141732089D01*
X223486733Y-141754558D01*
X223607972Y-141822316D01*
X223789728Y-141881372D01*
X223979493Y-141904000D01*
X223985628Y-141903528D01*
X223985630Y-141903528D01*
X224049393Y-141898622D01*
X224170039Y-141889339D01*
X224354108Y-141837945D01*
X224359612Y-141835165D01*
X224519189Y-141754558D01*
X224519191Y-141754557D01*
X224524690Y-141751779D01*
X224675286Y-141634120D01*
X224679312Y-141629456D01*
X224679315Y-141629453D01*
X224796134Y-141494116D01*
X224800161Y-141489451D01*
X224894557Y-141323283D01*
X224954881Y-141141944D01*
X224978833Y-140952341D01*
X224979215Y-140925000D01*
X224977874Y-140911328D01*
X255020880Y-140911328D01*
X255036872Y-141101767D01*
X255089549Y-141285473D01*
X255092367Y-141290955D01*
X255092368Y-141290959D01*
X255174085Y-141449963D01*
X255174088Y-141449967D01*
X255176905Y-141455449D01*
X255295612Y-141605220D01*
X255300306Y-141609215D01*
X255324086Y-141629453D01*
X255441149Y-141729082D01*
X255446527Y-141732088D01*
X255446529Y-141732089D01*
X255486733Y-141754558D01*
X255607972Y-141822316D01*
X255789728Y-141881372D01*
X255979493Y-141904000D01*
X255985628Y-141903528D01*
X255985630Y-141903528D01*
X256049393Y-141898622D01*
X256170039Y-141889339D01*
X256354108Y-141837945D01*
X256359612Y-141835165D01*
X256519189Y-141754558D01*
X256519191Y-141754557D01*
X256524690Y-141751779D01*
X256675286Y-141634120D01*
X256679312Y-141629456D01*
X256679315Y-141629453D01*
X256796134Y-141494116D01*
X256800161Y-141489451D01*
X256894557Y-141323283D01*
X256954881Y-141141944D01*
X256978833Y-140952341D01*
X256979215Y-140925000D01*
X256960566Y-140734803D01*
X256905329Y-140551850D01*
X256815609Y-140383111D01*
X256811719Y-140378341D01*
X256811716Y-140378337D01*
X256698717Y-140239787D01*
X256698714Y-140239784D01*
X256694822Y-140235012D01*
X256547570Y-140113194D01*
X256379461Y-140022298D01*
X256196899Y-139965785D01*
X256190781Y-139965142D01*
X256190776Y-139965141D01*
X256012965Y-139946453D01*
X256012963Y-139946453D01*
X256006836Y-139945809D01*
X255927644Y-139953016D01*
X255822652Y-139962571D01*
X255822649Y-139962572D01*
X255816513Y-139963130D01*
X255810607Y-139964868D01*
X255810603Y-139964869D01*
X255677352Y-140004088D01*
X255633180Y-140017088D01*
X255463818Y-140105628D01*
X255314879Y-140225378D01*
X255192036Y-140371776D01*
X255189068Y-140377174D01*
X255189065Y-140377179D01*
X255112584Y-140516300D01*
X255099969Y-140539246D01*
X255042183Y-140721410D01*
X255020880Y-140911328D01*
X224977874Y-140911328D01*
X224960566Y-140734803D01*
X224905329Y-140551850D01*
X224815609Y-140383111D01*
X224811719Y-140378341D01*
X224811716Y-140378337D01*
X224698717Y-140239787D01*
X224698714Y-140239784D01*
X224694822Y-140235012D01*
X224547570Y-140113194D01*
X224379461Y-140022298D01*
X224196899Y-139965785D01*
X224190781Y-139965142D01*
X224190776Y-139965141D01*
X224012965Y-139946453D01*
X224012963Y-139946453D01*
X224006836Y-139945809D01*
X223927644Y-139953016D01*
X223822652Y-139962571D01*
X223822649Y-139962572D01*
X223816513Y-139963130D01*
X223810607Y-139964868D01*
X223810603Y-139964869D01*
X223677352Y-140004088D01*
X223633180Y-140017088D01*
X223463818Y-140105628D01*
X223314879Y-140225378D01*
X223192036Y-140371776D01*
X223189068Y-140377174D01*
X223189065Y-140377179D01*
X223112584Y-140516300D01*
X223099969Y-140539246D01*
X223042183Y-140721410D01*
X223020880Y-140911328D01*
X218254500Y-140911328D01*
X218254500Y-135831328D01*
X220480880Y-135831328D01*
X220496872Y-136021767D01*
X220549549Y-136205473D01*
X220552367Y-136210955D01*
X220552368Y-136210959D01*
X220634085Y-136369963D01*
X220634088Y-136369967D01*
X220636905Y-136375449D01*
X220755612Y-136525220D01*
X220760306Y-136529215D01*
X220784086Y-136549453D01*
X220901149Y-136649082D01*
X220906527Y-136652088D01*
X220906529Y-136652089D01*
X220946733Y-136674558D01*
X221067972Y-136742316D01*
X221249728Y-136801372D01*
X221439493Y-136824000D01*
X221445628Y-136823528D01*
X221445630Y-136823528D01*
X221509393Y-136818622D01*
X221630039Y-136809339D01*
X221814108Y-136757945D01*
X221819612Y-136755165D01*
X221979189Y-136674558D01*
X221979191Y-136674557D01*
X221984690Y-136671779D01*
X222135286Y-136554120D01*
X222139312Y-136549456D01*
X222139315Y-136549453D01*
X222217000Y-136459454D01*
X222260161Y-136409451D01*
X222312940Y-136316542D01*
X222351514Y-136248640D01*
X222351515Y-136248639D01*
X222354557Y-136243283D01*
X222368956Y-136200000D01*
X222412934Y-136067796D01*
X222414881Y-136061944D01*
X222438833Y-135872341D01*
X222439215Y-135845000D01*
X222437874Y-135831328D01*
X225560880Y-135831328D01*
X225576872Y-136021767D01*
X225629549Y-136205473D01*
X225632367Y-136210955D01*
X225632368Y-136210959D01*
X225714085Y-136369963D01*
X225714088Y-136369967D01*
X225716905Y-136375449D01*
X225835612Y-136525220D01*
X225840306Y-136529215D01*
X225864086Y-136549453D01*
X225981149Y-136649082D01*
X225986527Y-136652088D01*
X225986529Y-136652089D01*
X226026733Y-136674558D01*
X226147972Y-136742316D01*
X226329728Y-136801372D01*
X226519493Y-136824000D01*
X226525628Y-136823528D01*
X226525630Y-136823528D01*
X226589393Y-136818622D01*
X226710039Y-136809339D01*
X226894108Y-136757945D01*
X226899612Y-136755165D01*
X227059189Y-136674558D01*
X227059191Y-136674557D01*
X227064690Y-136671779D01*
X227215286Y-136554120D01*
X227219312Y-136549456D01*
X227219315Y-136549453D01*
X227297000Y-136459454D01*
X227340161Y-136409451D01*
X227392940Y-136316542D01*
X227431514Y-136248640D01*
X227431515Y-136248639D01*
X227434557Y-136243283D01*
X227448956Y-136200000D01*
X227492934Y-136067796D01*
X227494881Y-136061944D01*
X227518833Y-135872341D01*
X227519215Y-135845000D01*
X227511724Y-135768596D01*
X246616229Y-135768596D01*
X246618516Y-135789307D01*
X246629018Y-135884430D01*
X246633613Y-135926053D01*
X246688053Y-136074819D01*
X246776408Y-136206305D01*
X246782027Y-136211418D01*
X246782028Y-136211419D01*
X246822934Y-136248640D01*
X246893576Y-136312919D01*
X247032793Y-136388508D01*
X247186022Y-136428707D01*
X247282638Y-136430225D01*
X247344272Y-136431193D01*
X247412070Y-136452262D01*
X247431388Y-136468082D01*
X248583595Y-137620289D01*
X248617621Y-137682601D01*
X248620500Y-137709384D01*
X248620500Y-137905187D01*
X248600498Y-137973308D01*
X248577330Y-138000135D01*
X248510039Y-138058838D01*
X248418950Y-138188444D01*
X248361406Y-138336037D01*
X248340729Y-138493096D01*
X248358113Y-138650553D01*
X248412553Y-138799319D01*
X248500908Y-138930805D01*
X248506527Y-138935918D01*
X248506528Y-138935919D01*
X248517903Y-138946269D01*
X248618076Y-139037419D01*
X248757293Y-139113008D01*
X248910522Y-139153207D01*
X248994477Y-139154526D01*
X249061319Y-139155576D01*
X249061322Y-139155576D01*
X249068916Y-139155695D01*
X249223332Y-139120329D01*
X249293742Y-139084917D01*
X249358072Y-139052563D01*
X249358075Y-139052561D01*
X249364855Y-139049151D01*
X249370626Y-139044222D01*
X249370629Y-139044220D01*
X249479536Y-138951204D01*
X249479536Y-138951203D01*
X249485314Y-138946269D01*
X249577755Y-138817624D01*
X249636842Y-138670641D01*
X249659162Y-138513807D01*
X249659307Y-138500000D01*
X249640276Y-138342733D01*
X249584280Y-138194546D01*
X249494553Y-138063992D01*
X249421681Y-137999065D01*
X249384126Y-137938816D01*
X249379500Y-137904989D01*
X249379500Y-137553920D01*
X249382049Y-137529973D01*
X249382128Y-137528307D01*
X249384320Y-137518124D01*
X249383096Y-137507782D01*
X249383096Y-137507779D01*
X249380374Y-137484787D01*
X249380023Y-137478846D01*
X249379928Y-137478854D01*
X249379500Y-137473674D01*
X249379500Y-137468476D01*
X249376329Y-137449424D01*
X249375492Y-137443547D01*
X249370693Y-137402997D01*
X249370692Y-137402995D01*
X249369469Y-137392659D01*
X249365508Y-137384410D01*
X249364004Y-137375374D01*
X249359056Y-137366203D01*
X249339652Y-137330240D01*
X249336957Y-137324951D01*
X249318212Y-137285915D01*
X249314780Y-137278768D01*
X249311186Y-137274492D01*
X249309246Y-137272552D01*
X249307493Y-137270641D01*
X249307444Y-137270551D01*
X249307567Y-137270439D01*
X249307095Y-137269904D01*
X249304010Y-137264186D01*
X249264413Y-137227583D01*
X249260848Y-137224154D01*
X247965643Y-135928949D01*
X247931617Y-135866637D01*
X247930331Y-135831328D01*
X252480880Y-135831328D01*
X252496872Y-136021767D01*
X252549549Y-136205473D01*
X252552367Y-136210955D01*
X252552368Y-136210959D01*
X252634085Y-136369963D01*
X252634088Y-136369967D01*
X252636905Y-136375449D01*
X252755612Y-136525220D01*
X252760306Y-136529215D01*
X252784086Y-136549453D01*
X252901149Y-136649082D01*
X252906527Y-136652088D01*
X252906529Y-136652089D01*
X252946733Y-136674558D01*
X253067972Y-136742316D01*
X253249728Y-136801372D01*
X253439493Y-136824000D01*
X253445628Y-136823528D01*
X253445630Y-136823528D01*
X253509393Y-136818622D01*
X253630039Y-136809339D01*
X253814108Y-136757945D01*
X253819612Y-136755165D01*
X253979189Y-136674558D01*
X253979191Y-136674557D01*
X253984690Y-136671779D01*
X254135286Y-136554120D01*
X254139312Y-136549456D01*
X254139315Y-136549453D01*
X254217000Y-136459454D01*
X254260161Y-136409451D01*
X254312940Y-136316542D01*
X254351514Y-136248640D01*
X254351515Y-136248639D01*
X254354557Y-136243283D01*
X254368956Y-136200000D01*
X254412934Y-136067796D01*
X254414881Y-136061944D01*
X254438833Y-135872341D01*
X254439215Y-135845000D01*
X254437874Y-135831328D01*
X257560880Y-135831328D01*
X257576872Y-136021767D01*
X257629549Y-136205473D01*
X257632367Y-136210955D01*
X257632368Y-136210959D01*
X257714085Y-136369963D01*
X257714088Y-136369967D01*
X257716905Y-136375449D01*
X257835612Y-136525220D01*
X257840306Y-136529215D01*
X257864086Y-136549453D01*
X257981149Y-136649082D01*
X257986527Y-136652088D01*
X257986529Y-136652089D01*
X258026733Y-136674558D01*
X258147972Y-136742316D01*
X258329728Y-136801372D01*
X258519493Y-136824000D01*
X258525628Y-136823528D01*
X258525630Y-136823528D01*
X258589393Y-136818622D01*
X258710039Y-136809339D01*
X258894108Y-136757945D01*
X258899612Y-136755165D01*
X259059189Y-136674558D01*
X259059191Y-136674557D01*
X259064690Y-136671779D01*
X259215286Y-136554120D01*
X259219312Y-136549456D01*
X259219315Y-136549453D01*
X259297000Y-136459454D01*
X259340161Y-136409451D01*
X259392940Y-136316542D01*
X259431514Y-136248640D01*
X259431515Y-136248639D01*
X259434557Y-136243283D01*
X259448956Y-136200000D01*
X259492934Y-136067796D01*
X259494881Y-136061944D01*
X259518833Y-135872341D01*
X259519215Y-135845000D01*
X259500566Y-135654803D01*
X259445329Y-135471850D01*
X259374953Y-135339492D01*
X259358503Y-135308553D01*
X259358501Y-135308550D01*
X259355609Y-135303111D01*
X259351719Y-135298341D01*
X259351716Y-135298337D01*
X259238717Y-135159787D01*
X259238714Y-135159784D01*
X259234822Y-135155012D01*
X259187704Y-135116032D01*
X259092319Y-135037123D01*
X259087570Y-135033194D01*
X258919461Y-134942298D01*
X258736899Y-134885785D01*
X258730781Y-134885142D01*
X258730776Y-134885141D01*
X258552965Y-134866453D01*
X258552963Y-134866453D01*
X258546836Y-134865809D01*
X258467644Y-134873016D01*
X258362652Y-134882571D01*
X258362649Y-134882572D01*
X258356513Y-134883130D01*
X258350607Y-134884868D01*
X258350603Y-134884869D01*
X258234814Y-134918948D01*
X258173180Y-134937088D01*
X258003818Y-135025628D01*
X257999018Y-135029488D01*
X257999017Y-135029488D01*
X257883540Y-135122334D01*
X257854879Y-135145378D01*
X257732036Y-135291776D01*
X257729068Y-135297174D01*
X257729065Y-135297179D01*
X257705804Y-135339492D01*
X257639969Y-135459246D01*
X257582183Y-135641410D01*
X257560880Y-135831328D01*
X254437874Y-135831328D01*
X254420566Y-135654803D01*
X254365329Y-135471850D01*
X254294953Y-135339492D01*
X254278503Y-135308553D01*
X254278501Y-135308550D01*
X254275609Y-135303111D01*
X254271719Y-135298341D01*
X254271716Y-135298337D01*
X254158717Y-135159787D01*
X254158714Y-135159784D01*
X254154822Y-135155012D01*
X254107704Y-135116032D01*
X254012319Y-135037123D01*
X254007570Y-135033194D01*
X253839461Y-134942298D01*
X253656899Y-134885785D01*
X253650781Y-134885142D01*
X253650776Y-134885141D01*
X253472965Y-134866453D01*
X253472963Y-134866453D01*
X253466836Y-134865809D01*
X253387644Y-134873016D01*
X253282652Y-134882571D01*
X253282649Y-134882572D01*
X253276513Y-134883130D01*
X253270607Y-134884868D01*
X253270603Y-134884869D01*
X253154814Y-134918948D01*
X253093180Y-134937088D01*
X252923818Y-135025628D01*
X252919018Y-135029488D01*
X252919017Y-135029488D01*
X252803540Y-135122334D01*
X252774879Y-135145378D01*
X252652036Y-135291776D01*
X252649068Y-135297174D01*
X252649065Y-135297179D01*
X252625804Y-135339492D01*
X252559969Y-135459246D01*
X252502183Y-135641410D01*
X252480880Y-135831328D01*
X247930331Y-135831328D01*
X247929995Y-135822101D01*
X247934081Y-135793392D01*
X247934081Y-135793386D01*
X247934662Y-135789307D01*
X247934807Y-135775500D01*
X247915776Y-135618233D01*
X247859780Y-135470046D01*
X247770053Y-135339492D01*
X247651775Y-135234111D01*
X247644389Y-135230200D01*
X247518488Y-135163539D01*
X247518489Y-135163539D01*
X247511774Y-135159984D01*
X247358133Y-135121392D01*
X247350534Y-135121352D01*
X247350533Y-135121352D01*
X247284681Y-135121007D01*
X247199721Y-135120562D01*
X247192341Y-135122334D01*
X247192339Y-135122334D01*
X247053063Y-135155771D01*
X247053060Y-135155772D01*
X247045684Y-135157543D01*
X246904914Y-135230200D01*
X246785539Y-135334338D01*
X246694450Y-135463944D01*
X246665678Y-135537740D01*
X246648202Y-135582565D01*
X246636906Y-135611537D01*
X246635914Y-135619070D01*
X246635914Y-135619071D01*
X246618085Y-135754500D01*
X246616229Y-135768596D01*
X227511724Y-135768596D01*
X227500566Y-135654803D01*
X227445329Y-135471850D01*
X227374953Y-135339492D01*
X227358503Y-135308553D01*
X227358501Y-135308550D01*
X227355609Y-135303111D01*
X227351719Y-135298341D01*
X227351716Y-135298337D01*
X227238717Y-135159787D01*
X227238714Y-135159784D01*
X227234822Y-135155012D01*
X227187704Y-135116032D01*
X227092319Y-135037123D01*
X227087570Y-135033194D01*
X226919461Y-134942298D01*
X226736899Y-134885785D01*
X226730781Y-134885142D01*
X226730776Y-134885141D01*
X226552965Y-134866453D01*
X226552963Y-134866453D01*
X226546836Y-134865809D01*
X226467644Y-134873016D01*
X226362652Y-134882571D01*
X226362649Y-134882572D01*
X226356513Y-134883130D01*
X226350607Y-134884868D01*
X226350603Y-134884869D01*
X226234814Y-134918948D01*
X226173180Y-134937088D01*
X226003818Y-135025628D01*
X225999018Y-135029488D01*
X225999017Y-135029488D01*
X225883540Y-135122334D01*
X225854879Y-135145378D01*
X225732036Y-135291776D01*
X225729068Y-135297174D01*
X225729065Y-135297179D01*
X225705804Y-135339492D01*
X225639969Y-135459246D01*
X225582183Y-135641410D01*
X225560880Y-135831328D01*
X222437874Y-135831328D01*
X222420566Y-135654803D01*
X222365329Y-135471850D01*
X222294953Y-135339492D01*
X222278503Y-135308553D01*
X222278501Y-135308550D01*
X222275609Y-135303111D01*
X222271719Y-135298341D01*
X222271716Y-135298337D01*
X222158717Y-135159787D01*
X222158714Y-135159784D01*
X222154822Y-135155012D01*
X222107704Y-135116032D01*
X222012319Y-135037123D01*
X222007570Y-135033194D01*
X221839461Y-134942298D01*
X221656899Y-134885785D01*
X221650781Y-134885142D01*
X221650776Y-134885141D01*
X221472965Y-134866453D01*
X221472963Y-134866453D01*
X221466836Y-134865809D01*
X221387644Y-134873016D01*
X221282652Y-134882571D01*
X221282649Y-134882572D01*
X221276513Y-134883130D01*
X221270607Y-134884868D01*
X221270603Y-134884869D01*
X221154814Y-134918948D01*
X221093180Y-134937088D01*
X220923818Y-135025628D01*
X220919018Y-135029488D01*
X220919017Y-135029488D01*
X220803540Y-135122334D01*
X220774879Y-135145378D01*
X220652036Y-135291776D01*
X220649068Y-135297174D01*
X220649065Y-135297179D01*
X220625804Y-135339492D01*
X220559969Y-135459246D01*
X220502183Y-135641410D01*
X220480880Y-135831328D01*
X218254500Y-135831328D01*
X218254500Y-134692603D01*
X233515424Y-134692603D01*
X233534166Y-134898550D01*
X233592554Y-135096934D01*
X233595411Y-135102399D01*
X233685508Y-135274739D01*
X233685511Y-135274743D01*
X233688363Y-135280199D01*
X233692223Y-135284999D01*
X233692223Y-135285000D01*
X233697671Y-135291776D01*
X233817943Y-135441365D01*
X233976360Y-135574292D01*
X234157578Y-135673918D01*
X234354696Y-135736447D01*
X234360813Y-135737133D01*
X234360817Y-135737134D01*
X234436837Y-135745661D01*
X234515640Y-135754500D01*
X235877034Y-135754500D01*
X236030811Y-135739422D01*
X236228783Y-135679651D01*
X236342717Y-135619071D01*
X236405933Y-135585459D01*
X236405936Y-135585457D01*
X236411375Y-135582565D01*
X236416145Y-135578674D01*
X236416149Y-135578672D01*
X236566857Y-135455758D01*
X236566860Y-135455755D01*
X236571632Y-135451863D01*
X236584288Y-135436565D01*
X236699522Y-135297271D01*
X236699525Y-135297266D01*
X236703450Y-135292522D01*
X236706382Y-135287100D01*
X236798878Y-135116032D01*
X236798880Y-135116027D01*
X236801808Y-135110612D01*
X236862960Y-134913063D01*
X236884576Y-134707397D01*
X236883230Y-134692603D01*
X238315424Y-134692603D01*
X238334166Y-134898550D01*
X238392554Y-135096934D01*
X238395411Y-135102399D01*
X238485508Y-135274739D01*
X238485511Y-135274743D01*
X238488363Y-135280199D01*
X238492223Y-135284999D01*
X238492223Y-135285000D01*
X238497671Y-135291776D01*
X238617943Y-135441365D01*
X238776360Y-135574292D01*
X238957578Y-135673918D01*
X239154696Y-135736447D01*
X239160813Y-135737133D01*
X239160817Y-135737134D01*
X239236837Y-135745661D01*
X239315640Y-135754500D01*
X240677034Y-135754500D01*
X240830811Y-135739422D01*
X241028783Y-135679651D01*
X241142717Y-135619071D01*
X241205933Y-135585459D01*
X241205936Y-135585457D01*
X241211375Y-135582565D01*
X241216145Y-135578674D01*
X241216149Y-135578672D01*
X241366857Y-135455758D01*
X241366860Y-135455755D01*
X241371632Y-135451863D01*
X241384288Y-135436565D01*
X241499522Y-135297271D01*
X241499525Y-135297266D01*
X241503450Y-135292522D01*
X241506382Y-135287100D01*
X241598878Y-135116032D01*
X241598880Y-135116027D01*
X241601808Y-135110612D01*
X241662960Y-134913063D01*
X241684576Y-134707397D01*
X241683230Y-134692603D01*
X243115424Y-134692603D01*
X243134166Y-134898550D01*
X243192554Y-135096934D01*
X243195411Y-135102399D01*
X243285508Y-135274739D01*
X243285511Y-135274743D01*
X243288363Y-135280199D01*
X243292223Y-135284999D01*
X243292223Y-135285000D01*
X243297671Y-135291776D01*
X243417943Y-135441365D01*
X243576360Y-135574292D01*
X243757578Y-135673918D01*
X243954696Y-135736447D01*
X243960813Y-135737133D01*
X243960817Y-135737134D01*
X244036837Y-135745661D01*
X244115640Y-135754500D01*
X245477034Y-135754500D01*
X245630811Y-135739422D01*
X245828783Y-135679651D01*
X245942717Y-135619071D01*
X246005933Y-135585459D01*
X246005936Y-135585457D01*
X246011375Y-135582565D01*
X246016145Y-135578674D01*
X246016149Y-135578672D01*
X246166857Y-135455758D01*
X246166860Y-135455755D01*
X246171632Y-135451863D01*
X246184288Y-135436565D01*
X246299522Y-135297271D01*
X246299525Y-135297266D01*
X246303450Y-135292522D01*
X246306382Y-135287100D01*
X246398878Y-135116032D01*
X246398880Y-135116027D01*
X246401808Y-135110612D01*
X246462960Y-134913063D01*
X246484576Y-134707397D01*
X246465834Y-134501450D01*
X246407446Y-134303066D01*
X246343447Y-134180647D01*
X246314492Y-134125261D01*
X246314489Y-134125257D01*
X246311637Y-134119801D01*
X246306089Y-134112900D01*
X246250869Y-134044220D01*
X246182057Y-133958635D01*
X246023640Y-133825708D01*
X245842422Y-133726082D01*
X245645304Y-133663553D01*
X245639187Y-133662867D01*
X245639183Y-133662866D01*
X245563163Y-133654339D01*
X245484360Y-133645500D01*
X244122966Y-133645500D01*
X243969189Y-133660578D01*
X243771217Y-133720349D01*
X243679921Y-133768892D01*
X243594067Y-133814541D01*
X243594064Y-133814543D01*
X243588625Y-133817435D01*
X243583855Y-133821326D01*
X243583851Y-133821328D01*
X243433143Y-133944242D01*
X243433140Y-133944245D01*
X243428368Y-133948137D01*
X243424441Y-133952884D01*
X243424439Y-133952886D01*
X243300478Y-134102729D01*
X243300475Y-134102734D01*
X243296550Y-134107478D01*
X243293620Y-134112897D01*
X243293618Y-134112900D01*
X243201122Y-134283968D01*
X243201120Y-134283973D01*
X243198192Y-134289388D01*
X243137040Y-134486937D01*
X243115424Y-134692603D01*
X241683230Y-134692603D01*
X241665834Y-134501450D01*
X241607446Y-134303066D01*
X241543447Y-134180647D01*
X241514492Y-134125261D01*
X241514489Y-134125257D01*
X241511637Y-134119801D01*
X241506089Y-134112900D01*
X241450869Y-134044220D01*
X241382057Y-133958635D01*
X241223640Y-133825708D01*
X241042422Y-133726082D01*
X240845304Y-133663553D01*
X240839187Y-133662867D01*
X240839183Y-133662866D01*
X240763163Y-133654339D01*
X240684360Y-133645500D01*
X239322966Y-133645500D01*
X239169189Y-133660578D01*
X238971217Y-133720349D01*
X238879921Y-133768892D01*
X238794067Y-133814541D01*
X238794064Y-133814543D01*
X238788625Y-133817435D01*
X238783855Y-133821326D01*
X238783851Y-133821328D01*
X238633143Y-133944242D01*
X238633140Y-133944245D01*
X238628368Y-133948137D01*
X238624441Y-133952884D01*
X238624439Y-133952886D01*
X238500478Y-134102729D01*
X238500475Y-134102734D01*
X238496550Y-134107478D01*
X238493620Y-134112897D01*
X238493618Y-134112900D01*
X238401122Y-134283968D01*
X238401120Y-134283973D01*
X238398192Y-134289388D01*
X238337040Y-134486937D01*
X238315424Y-134692603D01*
X236883230Y-134692603D01*
X236865834Y-134501450D01*
X236807446Y-134303066D01*
X236743447Y-134180647D01*
X236714492Y-134125261D01*
X236714489Y-134125257D01*
X236711637Y-134119801D01*
X236706089Y-134112900D01*
X236650869Y-134044220D01*
X236582057Y-133958635D01*
X236423640Y-133825708D01*
X236242422Y-133726082D01*
X236045304Y-133663553D01*
X236039187Y-133662867D01*
X236039183Y-133662866D01*
X235963163Y-133654339D01*
X235884360Y-133645500D01*
X234522966Y-133645500D01*
X234369189Y-133660578D01*
X234171217Y-133720349D01*
X234079921Y-133768892D01*
X233994067Y-133814541D01*
X233994064Y-133814543D01*
X233988625Y-133817435D01*
X233983855Y-133821326D01*
X233983851Y-133821328D01*
X233833143Y-133944242D01*
X233833140Y-133944245D01*
X233828368Y-133948137D01*
X233824441Y-133952884D01*
X233824439Y-133952886D01*
X233700478Y-134102729D01*
X233700475Y-134102734D01*
X233696550Y-134107478D01*
X233693620Y-134112897D01*
X233693618Y-134112900D01*
X233601122Y-134283968D01*
X233601120Y-134283973D01*
X233598192Y-134289388D01*
X233537040Y-134486937D01*
X233515424Y-134692603D01*
X218254500Y-134692603D01*
X218254500Y-133493096D01*
X229340729Y-133493096D01*
X229358113Y-133650553D01*
X229360723Y-133657684D01*
X229360723Y-133657686D01*
X229385071Y-133724219D01*
X229412553Y-133799319D01*
X229416789Y-133805622D01*
X229416789Y-133805623D01*
X229441621Y-133842576D01*
X229500908Y-133930805D01*
X229506527Y-133935918D01*
X229506528Y-133935919D01*
X229545325Y-133971221D01*
X229618076Y-134037419D01*
X229757293Y-134113008D01*
X229910522Y-134153207D01*
X229994477Y-134154526D01*
X230061319Y-134155576D01*
X230061322Y-134155576D01*
X230068916Y-134155695D01*
X230223332Y-134120329D01*
X230315243Y-134074103D01*
X230358072Y-134052563D01*
X230358075Y-134052561D01*
X230364855Y-134049151D01*
X230370626Y-134044222D01*
X230370629Y-134044220D01*
X230479542Y-133951199D01*
X230479543Y-133951198D01*
X230485314Y-133946269D01*
X230495586Y-133931974D01*
X230551581Y-133888326D01*
X230597909Y-133879500D01*
X231107029Y-133879500D01*
X231175150Y-133899502D01*
X231211609Y-133935222D01*
X231225408Y-133955757D01*
X231231026Y-133960869D01*
X231319136Y-134041042D01*
X231342576Y-134062371D01*
X231481793Y-134137960D01*
X231635022Y-134178159D01*
X231718977Y-134179478D01*
X231785819Y-134180528D01*
X231785822Y-134180528D01*
X231793416Y-134180647D01*
X231947832Y-134145281D01*
X232032438Y-134102729D01*
X232082572Y-134077515D01*
X232082575Y-134077513D01*
X232089355Y-134074103D01*
X232095126Y-134069174D01*
X232095129Y-134069172D01*
X232204036Y-133976156D01*
X232204036Y-133976155D01*
X232209814Y-133971221D01*
X232302255Y-133842576D01*
X232361342Y-133695593D01*
X232383662Y-133538759D01*
X232383807Y-133524952D01*
X232364776Y-133367685D01*
X232308780Y-133219498D01*
X232219053Y-133088944D01*
X232207676Y-133078807D01*
X232106446Y-132988616D01*
X232100775Y-132983563D01*
X232093389Y-132979652D01*
X231967488Y-132912991D01*
X231967489Y-132912991D01*
X231960774Y-132909436D01*
X231807133Y-132870844D01*
X231799534Y-132870804D01*
X231799533Y-132870804D01*
X231733681Y-132870459D01*
X231648721Y-132870014D01*
X231641341Y-132871786D01*
X231641339Y-132871786D01*
X231502063Y-132905223D01*
X231502060Y-132905224D01*
X231494684Y-132906995D01*
X231353914Y-132979652D01*
X231348195Y-132984641D01*
X231244776Y-133074860D01*
X231240247Y-133078810D01*
X231240246Y-133078811D01*
X231234539Y-133083790D01*
X231233709Y-133082839D01*
X231179809Y-133116049D01*
X231146614Y-133120500D01*
X230599682Y-133120500D01*
X230531561Y-133100498D01*
X230505114Y-133074860D01*
X230503878Y-133075949D01*
X230498855Y-133070251D01*
X230494553Y-133063992D01*
X230376275Y-132958611D01*
X230368889Y-132954700D01*
X230242988Y-132888039D01*
X230242989Y-132888039D01*
X230236274Y-132884484D01*
X230082633Y-132845892D01*
X230075034Y-132845852D01*
X230075033Y-132845852D01*
X230009181Y-132845507D01*
X229924221Y-132845062D01*
X229916841Y-132846834D01*
X229916839Y-132846834D01*
X229777563Y-132880271D01*
X229777560Y-132880272D01*
X229770184Y-132882043D01*
X229629414Y-132954700D01*
X229510039Y-133058838D01*
X229418950Y-133188444D01*
X229361406Y-133336037D01*
X229360414Y-133343570D01*
X229360414Y-133343571D01*
X229357240Y-133367685D01*
X229340729Y-133493096D01*
X218254500Y-133493096D01*
X218254500Y-131630692D01*
X218274502Y-131562571D01*
X218328158Y-131516078D01*
X218398432Y-131505974D01*
X218463012Y-131535468D01*
X218469518Y-131541519D01*
X218521829Y-131593739D01*
X218533240Y-131602751D01*
X218671243Y-131687816D01*
X218684424Y-131693963D01*
X218838710Y-131745138D01*
X218852086Y-131748005D01*
X218946438Y-131757672D01*
X218952854Y-131758000D01*
X219227885Y-131758000D01*
X219243124Y-131753525D01*
X219244329Y-131752135D01*
X219246000Y-131744452D01*
X219246000Y-131739884D01*
X219754000Y-131739884D01*
X219758475Y-131755123D01*
X219759865Y-131756328D01*
X219767548Y-131757999D01*
X220047095Y-131757999D01*
X220053614Y-131757662D01*
X220149206Y-131747743D01*
X220162600Y-131744851D01*
X220316784Y-131693412D01*
X220329962Y-131687239D01*
X220467807Y-131601937D01*
X220479208Y-131592901D01*
X220593739Y-131478171D01*
X220602751Y-131466760D01*
X220687816Y-131328757D01*
X220693963Y-131315576D01*
X220745138Y-131161290D01*
X220748005Y-131147914D01*
X220757672Y-131053562D01*
X220758000Y-131047146D01*
X220758000Y-130772115D01*
X220753525Y-130756876D01*
X220752135Y-130755671D01*
X220744452Y-130754000D01*
X219772115Y-130754000D01*
X219756876Y-130758475D01*
X219755671Y-130759865D01*
X219754000Y-130767548D01*
X219754000Y-131739884D01*
X219246000Y-131739884D01*
X219246000Y-130227885D01*
X219754000Y-130227885D01*
X219758475Y-130243124D01*
X219759865Y-130244329D01*
X219767548Y-130246000D01*
X220739884Y-130246000D01*
X220755123Y-130241525D01*
X220756328Y-130240135D01*
X220757999Y-130232452D01*
X220757999Y-129992603D01*
X233515424Y-129992603D01*
X233534166Y-130198550D01*
X233592554Y-130396934D01*
X233595411Y-130402399D01*
X233685508Y-130574739D01*
X233685511Y-130574743D01*
X233688363Y-130580199D01*
X233692223Y-130584999D01*
X233692223Y-130585000D01*
X233702089Y-130597271D01*
X233817943Y-130741365D01*
X233976360Y-130874292D01*
X234157578Y-130973918D01*
X234354696Y-131036447D01*
X234360813Y-131037133D01*
X234360817Y-131037134D01*
X234436837Y-131045661D01*
X234515640Y-131054500D01*
X235877034Y-131054500D01*
X236030811Y-131039422D01*
X236228783Y-130979651D01*
X236320079Y-130931108D01*
X236405933Y-130885459D01*
X236405936Y-130885457D01*
X236411375Y-130882565D01*
X236416145Y-130878674D01*
X236416149Y-130878672D01*
X236566857Y-130755758D01*
X236566860Y-130755755D01*
X236571632Y-130751863D01*
X236584288Y-130736565D01*
X236699522Y-130597271D01*
X236699525Y-130597266D01*
X236703450Y-130592522D01*
X236707517Y-130585000D01*
X236798878Y-130416032D01*
X236798880Y-130416027D01*
X236801808Y-130410612D01*
X236862960Y-130213063D01*
X236866965Y-130174959D01*
X236883932Y-130013526D01*
X236883932Y-130013524D01*
X236884576Y-130007397D01*
X236883230Y-129992603D01*
X238315424Y-129992603D01*
X238334166Y-130198550D01*
X238392554Y-130396934D01*
X238395411Y-130402399D01*
X238485508Y-130574739D01*
X238485511Y-130574743D01*
X238488363Y-130580199D01*
X238492223Y-130584999D01*
X238492223Y-130585000D01*
X238502089Y-130597271D01*
X238617943Y-130741365D01*
X238776360Y-130874292D01*
X238957578Y-130973918D01*
X239154696Y-131036447D01*
X239160813Y-131037133D01*
X239160817Y-131037134D01*
X239236837Y-131045661D01*
X239315640Y-131054500D01*
X240677034Y-131054500D01*
X240830811Y-131039422D01*
X241028783Y-130979651D01*
X241120079Y-130931108D01*
X241205933Y-130885459D01*
X241205936Y-130885457D01*
X241211375Y-130882565D01*
X241216145Y-130878674D01*
X241216149Y-130878672D01*
X241366857Y-130755758D01*
X241366860Y-130755755D01*
X241371632Y-130751863D01*
X241384288Y-130736565D01*
X241499522Y-130597271D01*
X241499525Y-130597266D01*
X241503450Y-130592522D01*
X241507517Y-130585000D01*
X241598878Y-130416032D01*
X241598880Y-130416027D01*
X241601808Y-130410612D01*
X241662960Y-130213063D01*
X241666965Y-130174959D01*
X241683932Y-130013526D01*
X241683932Y-130013524D01*
X241684576Y-130007397D01*
X241683230Y-129992603D01*
X243115424Y-129992603D01*
X243134166Y-130198550D01*
X243192554Y-130396934D01*
X243195411Y-130402399D01*
X243285508Y-130574739D01*
X243285511Y-130574743D01*
X243288363Y-130580199D01*
X243292223Y-130584999D01*
X243292223Y-130585000D01*
X243302089Y-130597271D01*
X243417943Y-130741365D01*
X243576360Y-130874292D01*
X243757578Y-130973918D01*
X243954696Y-131036447D01*
X243960813Y-131037133D01*
X243960817Y-131037134D01*
X244036837Y-131045661D01*
X244115640Y-131054500D01*
X245477034Y-131054500D01*
X245630811Y-131039422D01*
X245828783Y-130979651D01*
X245920079Y-130931108D01*
X246005933Y-130885459D01*
X246005936Y-130885457D01*
X246011375Y-130882565D01*
X246016145Y-130878674D01*
X246016149Y-130878672D01*
X246166857Y-130755758D01*
X246166860Y-130755755D01*
X246171632Y-130751863D01*
X246184288Y-130736565D01*
X246299522Y-130597271D01*
X246299525Y-130597266D01*
X246303450Y-130592522D01*
X246307821Y-130584439D01*
X246369561Y-130470251D01*
X246382906Y-130445571D01*
X246432900Y-130395163D01*
X246493741Y-130379500D01*
X246648738Y-130379500D01*
X246716859Y-130399502D01*
X246763352Y-130453158D01*
X246773456Y-130523432D01*
X246751823Y-130577953D01*
X246748820Y-130582225D01*
X246748817Y-130582230D01*
X246744450Y-130588444D01*
X246686906Y-130736037D01*
X246685914Y-130743570D01*
X246685914Y-130743571D01*
X246668128Y-130878672D01*
X246666229Y-130893096D01*
X246669076Y-130918880D01*
X246682056Y-131036447D01*
X246683613Y-131050553D01*
X246686223Y-131057684D01*
X246686223Y-131057686D01*
X246724137Y-131161290D01*
X246738053Y-131199319D01*
X246742289Y-131205622D01*
X246742289Y-131205623D01*
X246816175Y-131315576D01*
X246826408Y-131330805D01*
X246832025Y-131335916D01*
X246832028Y-131335919D01*
X246843403Y-131346269D01*
X246943576Y-131437419D01*
X247082793Y-131513008D01*
X247236022Y-131553207D01*
X247319977Y-131554526D01*
X247386819Y-131555576D01*
X247386822Y-131555576D01*
X247394416Y-131555695D01*
X247548832Y-131520329D01*
X247632655Y-131478171D01*
X247683572Y-131452563D01*
X247683575Y-131452561D01*
X247690355Y-131449151D01*
X247696126Y-131444222D01*
X247696129Y-131444220D01*
X247805042Y-131351199D01*
X247805043Y-131351198D01*
X247810814Y-131346269D01*
X247821086Y-131331974D01*
X247877081Y-131288326D01*
X247923409Y-131279500D01*
X248800141Y-131279500D01*
X248868262Y-131299502D01*
X248895522Y-131323169D01*
X248896671Y-131324500D01*
X248900908Y-131330805D01*
X249018076Y-131437419D01*
X249157293Y-131513008D01*
X249310522Y-131553207D01*
X249394477Y-131554526D01*
X249461319Y-131555576D01*
X249461322Y-131555576D01*
X249468916Y-131555695D01*
X249623332Y-131520329D01*
X249707155Y-131478171D01*
X249758072Y-131452563D01*
X249758075Y-131452561D01*
X249764855Y-131449151D01*
X249770626Y-131444222D01*
X249770629Y-131444220D01*
X249879536Y-131351204D01*
X249879536Y-131351203D01*
X249885314Y-131346269D01*
X249977755Y-131217624D01*
X250036842Y-131070641D01*
X250053224Y-130955530D01*
X250058581Y-130917891D01*
X250058581Y-130917888D01*
X250059162Y-130913807D01*
X250059231Y-130907265D01*
X250059264Y-130904134D01*
X250059264Y-130904128D01*
X250059307Y-130900000D01*
X250040276Y-130742733D01*
X249984280Y-130594546D01*
X249933390Y-130520500D01*
X249898855Y-130470251D01*
X249898854Y-130470249D01*
X249894553Y-130463992D01*
X249888887Y-130458943D01*
X249888880Y-130458936D01*
X249821869Y-130399232D01*
X249784313Y-130338982D01*
X249785293Y-130267992D01*
X249795273Y-130244455D01*
X249797821Y-130239821D01*
X249802255Y-130233650D01*
X249805088Y-130226602D01*
X249805090Y-130226599D01*
X249844539Y-130128466D01*
X249861342Y-130086667D01*
X249877996Y-129969649D01*
X249883081Y-129933917D01*
X249883081Y-129933914D01*
X249883662Y-129929833D01*
X249883807Y-129916026D01*
X249864776Y-129758759D01*
X249808780Y-129610572D01*
X249747076Y-129520792D01*
X249723355Y-129486277D01*
X249723354Y-129486275D01*
X249719053Y-129480018D01*
X249600775Y-129374637D01*
X249593389Y-129370726D01*
X249472253Y-129306588D01*
X249460774Y-129300510D01*
X249307133Y-129261918D01*
X249299534Y-129261878D01*
X249299533Y-129261878D01*
X249233681Y-129261533D01*
X249148721Y-129261088D01*
X249141341Y-129262860D01*
X249141339Y-129262860D01*
X249002063Y-129296297D01*
X249002060Y-129296298D01*
X248994684Y-129298069D01*
X248853914Y-129370726D01*
X248734539Y-129474864D01*
X248680897Y-129551189D01*
X248669819Y-129566951D01*
X248614284Y-129611182D01*
X248566732Y-129620500D01*
X246492869Y-129620500D01*
X246424748Y-129600498D01*
X246381208Y-129552876D01*
X246314494Y-129425265D01*
X246314492Y-129425261D01*
X246311637Y-129419801D01*
X246306089Y-129412900D01*
X246214238Y-129298660D01*
X246182057Y-129258635D01*
X246023640Y-129125708D01*
X245931281Y-129074933D01*
X253570500Y-129074933D01*
X253570501Y-130925066D01*
X253575825Y-130951832D01*
X253581358Y-130979651D01*
X253585266Y-130999301D01*
X253592161Y-131009620D01*
X253592162Y-131009622D01*
X253621887Y-131054107D01*
X253641516Y-131083484D01*
X253725699Y-131139734D01*
X253799933Y-131154500D01*
X254724850Y-131154500D01*
X255650066Y-131154499D01*
X255685818Y-131147388D01*
X255712126Y-131142156D01*
X255712128Y-131142155D01*
X255724301Y-131139734D01*
X255734621Y-131132839D01*
X255734622Y-131132838D01*
X255798168Y-131090377D01*
X255808484Y-131083484D01*
X255864734Y-130999301D01*
X255879500Y-130925067D01*
X255879500Y-130243080D01*
X255899502Y-130174959D01*
X255953158Y-130128466D01*
X256023432Y-130118362D01*
X256088012Y-130147856D01*
X256127622Y-130212064D01*
X256172058Y-130387031D01*
X256260890Y-130579723D01*
X256383350Y-130753000D01*
X256535337Y-130901059D01*
X256540133Y-130904264D01*
X256540136Y-130904266D01*
X256639935Y-130970949D01*
X256711760Y-131018941D01*
X256717063Y-131021219D01*
X256717066Y-131021221D01*
X256805481Y-131059207D01*
X256906711Y-131102699D01*
X256982750Y-131119905D01*
X257108025Y-131148252D01*
X257108030Y-131148253D01*
X257113662Y-131149527D01*
X257119433Y-131149754D01*
X257119435Y-131149754D01*
X257184911Y-131152326D01*
X257325681Y-131157857D01*
X257433974Y-131142155D01*
X257529953Y-131128239D01*
X257529958Y-131128238D01*
X257535667Y-131127410D01*
X257541131Y-131125555D01*
X257541136Y-131125554D01*
X257682124Y-131077695D01*
X257736589Y-131059207D01*
X257744994Y-131054500D01*
X257916670Y-130958357D01*
X257916674Y-130958354D01*
X257921717Y-130955530D01*
X258084852Y-130819852D01*
X258220530Y-130656717D01*
X258223354Y-130651674D01*
X258223357Y-130651670D01*
X258321383Y-130476632D01*
X258321384Y-130476630D01*
X258324207Y-130471589D01*
X258362557Y-130358611D01*
X258390554Y-130276136D01*
X258390555Y-130276131D01*
X258392410Y-130270667D01*
X258396636Y-130241525D01*
X258413028Y-130128466D01*
X258422857Y-130060681D01*
X258424446Y-130000000D01*
X258406202Y-129801450D01*
X258405560Y-129794462D01*
X258405559Y-129794459D01*
X258405031Y-129788708D01*
X258399847Y-129770325D01*
X258349004Y-129590051D01*
X258349003Y-129590049D01*
X258347436Y-129584492D01*
X258302015Y-129492386D01*
X258256145Y-129399372D01*
X258253590Y-129394191D01*
X258233469Y-129367245D01*
X258130089Y-129228803D01*
X258130088Y-129228802D01*
X258126636Y-129224179D01*
X258102524Y-129201890D01*
X257975066Y-129084069D01*
X257975063Y-129084067D01*
X257970826Y-129080150D01*
X257791377Y-128966926D01*
X257594300Y-128888300D01*
X257588643Y-128887175D01*
X257588637Y-128887173D01*
X257391863Y-128848033D01*
X257391859Y-128848033D01*
X257386195Y-128846906D01*
X257380420Y-128846830D01*
X257380416Y-128846830D01*
X257273804Y-128845434D01*
X257174031Y-128844128D01*
X257168334Y-128845107D01*
X257168333Y-128845107D01*
X256970610Y-128879082D01*
X256964913Y-128880061D01*
X256765846Y-128953501D01*
X256760885Y-128956453D01*
X256760884Y-128956453D01*
X256588463Y-129059032D01*
X256588460Y-129059034D01*
X256583495Y-129061988D01*
X256579155Y-129065794D01*
X256579151Y-129065797D01*
X256506321Y-129129668D01*
X256423968Y-129201890D01*
X256420393Y-129206425D01*
X256420392Y-129206426D01*
X256375450Y-129263435D01*
X256292607Y-129368520D01*
X256193812Y-129556299D01*
X256130891Y-129758938D01*
X256130212Y-129764675D01*
X256129011Y-129770325D01*
X256126914Y-129769879D01*
X256102743Y-129826486D01*
X256043988Y-129866341D01*
X255973014Y-129868104D01*
X255912353Y-129831216D01*
X255881265Y-129767387D01*
X255879499Y-129746364D01*
X255879499Y-129074934D01*
X255869218Y-129023243D01*
X255867156Y-129012874D01*
X255867155Y-129012872D01*
X255864734Y-129000699D01*
X255842168Y-128966926D01*
X255815377Y-128926832D01*
X255808484Y-128916516D01*
X255724301Y-128860266D01*
X255650067Y-128845500D01*
X254725150Y-128845500D01*
X253799934Y-128845501D01*
X253764182Y-128852612D01*
X253737874Y-128857844D01*
X253737872Y-128857845D01*
X253725699Y-128860266D01*
X253715379Y-128867161D01*
X253715378Y-128867162D01*
X253680541Y-128890440D01*
X253641516Y-128916516D01*
X253585266Y-129000699D01*
X253570500Y-129074933D01*
X245931281Y-129074933D01*
X245842422Y-129026082D01*
X245645304Y-128963553D01*
X245639187Y-128962867D01*
X245639183Y-128962866D01*
X245563163Y-128954339D01*
X245484360Y-128945500D01*
X244122966Y-128945500D01*
X243969189Y-128960578D01*
X243771217Y-129020349D01*
X243698465Y-129059032D01*
X243594067Y-129114541D01*
X243594064Y-129114543D01*
X243588625Y-129117435D01*
X243583855Y-129121326D01*
X243583851Y-129121328D01*
X243433143Y-129244242D01*
X243433140Y-129244245D01*
X243428368Y-129248137D01*
X243424441Y-129252884D01*
X243424439Y-129252886D01*
X243300478Y-129402729D01*
X243300475Y-129402734D01*
X243296550Y-129407478D01*
X243293620Y-129412897D01*
X243293618Y-129412900D01*
X243201122Y-129583968D01*
X243201120Y-129583973D01*
X243198192Y-129589388D01*
X243137040Y-129786937D01*
X243136396Y-129793062D01*
X243136396Y-129793063D01*
X243117837Y-129969649D01*
X243115424Y-129992603D01*
X241683230Y-129992603D01*
X241665834Y-129801450D01*
X241607446Y-129603066D01*
X241595028Y-129579312D01*
X241514492Y-129425261D01*
X241514489Y-129425257D01*
X241511637Y-129419801D01*
X241506089Y-129412900D01*
X241414238Y-129298660D01*
X241382057Y-129258635D01*
X241223640Y-129125708D01*
X241042422Y-129026082D01*
X240845304Y-128963553D01*
X240839187Y-128962867D01*
X240839183Y-128962866D01*
X240763163Y-128954339D01*
X240684360Y-128945500D01*
X239322966Y-128945500D01*
X239169189Y-128960578D01*
X238971217Y-129020349D01*
X238898465Y-129059032D01*
X238794067Y-129114541D01*
X238794064Y-129114543D01*
X238788625Y-129117435D01*
X238783855Y-129121326D01*
X238783851Y-129121328D01*
X238633143Y-129244242D01*
X238633140Y-129244245D01*
X238628368Y-129248137D01*
X238624441Y-129252884D01*
X238624439Y-129252886D01*
X238500478Y-129402729D01*
X238500475Y-129402734D01*
X238496550Y-129407478D01*
X238493620Y-129412897D01*
X238493618Y-129412900D01*
X238401122Y-129583968D01*
X238401120Y-129583973D01*
X238398192Y-129589388D01*
X238337040Y-129786937D01*
X238336396Y-129793062D01*
X238336396Y-129793063D01*
X238317837Y-129969649D01*
X238315424Y-129992603D01*
X236883230Y-129992603D01*
X236865834Y-129801450D01*
X236807446Y-129603066D01*
X236795028Y-129579312D01*
X236714492Y-129425261D01*
X236714489Y-129425257D01*
X236711637Y-129419801D01*
X236706089Y-129412900D01*
X236614238Y-129298660D01*
X236582057Y-129258635D01*
X236423640Y-129125708D01*
X236242422Y-129026082D01*
X236045304Y-128963553D01*
X236039187Y-128962867D01*
X236039183Y-128962866D01*
X235963163Y-128954339D01*
X235884360Y-128945500D01*
X234522966Y-128945500D01*
X234369189Y-128960578D01*
X234171217Y-129020349D01*
X234098465Y-129059032D01*
X233994067Y-129114541D01*
X233994064Y-129114543D01*
X233988625Y-129117435D01*
X233983855Y-129121326D01*
X233983851Y-129121328D01*
X233833143Y-129244242D01*
X233833140Y-129244245D01*
X233828368Y-129248137D01*
X233824441Y-129252884D01*
X233824439Y-129252886D01*
X233700478Y-129402729D01*
X233700475Y-129402734D01*
X233696550Y-129407478D01*
X233693620Y-129412897D01*
X233693618Y-129412900D01*
X233601122Y-129583968D01*
X233601120Y-129583973D01*
X233598192Y-129589388D01*
X233537040Y-129786937D01*
X233536396Y-129793062D01*
X233536396Y-129793063D01*
X233517837Y-129969649D01*
X233515424Y-129992603D01*
X220757999Y-129992603D01*
X220757999Y-129952905D01*
X220757662Y-129946386D01*
X220747743Y-129850794D01*
X220744851Y-129837400D01*
X220693412Y-129683216D01*
X220687239Y-129670038D01*
X220601937Y-129532193D01*
X220592901Y-129520792D01*
X220478171Y-129406261D01*
X220466760Y-129397249D01*
X220328757Y-129312184D01*
X220315576Y-129306037D01*
X220161290Y-129254862D01*
X220147914Y-129251995D01*
X220053562Y-129242328D01*
X220047145Y-129242000D01*
X219772115Y-129242000D01*
X219756876Y-129246475D01*
X219755671Y-129247865D01*
X219754000Y-129255548D01*
X219754000Y-130227885D01*
X219246000Y-130227885D01*
X219246000Y-129260116D01*
X219241525Y-129244877D01*
X219240135Y-129243672D01*
X219232452Y-129242001D01*
X218952905Y-129242001D01*
X218946386Y-129242338D01*
X218850794Y-129252257D01*
X218837400Y-129255149D01*
X218683216Y-129306588D01*
X218670038Y-129312761D01*
X218532193Y-129398063D01*
X218520792Y-129407099D01*
X218469673Y-129458307D01*
X218407390Y-129492386D01*
X218336570Y-129487383D01*
X218279698Y-129444886D01*
X218254829Y-129378387D01*
X218254500Y-129369289D01*
X218254500Y-127638032D01*
X218274502Y-127569911D01*
X218328158Y-127523418D01*
X218398432Y-127513314D01*
X218463012Y-127542808D01*
X218501935Y-127606994D01*
X218502202Y-127609448D01*
X218504974Y-127616841D01*
X218504974Y-127616843D01*
X218514680Y-127642733D01*
X218552929Y-127744764D01*
X218558309Y-127751943D01*
X218558311Y-127751946D01*
X218607734Y-127817891D01*
X218639596Y-127860404D01*
X218646776Y-127865785D01*
X218748054Y-127941689D01*
X218748057Y-127941691D01*
X218755236Y-127947071D01*
X218818110Y-127970641D01*
X218883157Y-127995026D01*
X218883159Y-127995026D01*
X218890552Y-127997798D01*
X218898402Y-127998651D01*
X218898403Y-127998651D01*
X218948847Y-128004131D01*
X218952244Y-128004500D01*
X220047756Y-128004500D01*
X220051153Y-128004131D01*
X220101597Y-127998651D01*
X220101598Y-127998651D01*
X220109448Y-127997798D01*
X220116841Y-127995026D01*
X220116843Y-127995026D01*
X220121991Y-127993096D01*
X246340729Y-127993096D01*
X246358113Y-128150553D01*
X246360723Y-128157684D01*
X246360723Y-128157686D01*
X246394946Y-128251204D01*
X246412553Y-128299319D01*
X246416789Y-128305622D01*
X246416789Y-128305623D01*
X246448332Y-128352563D01*
X246500908Y-128430805D01*
X246506527Y-128435918D01*
X246506528Y-128435919D01*
X246525658Y-128453326D01*
X246618076Y-128537419D01*
X246757293Y-128613008D01*
X246910522Y-128653207D01*
X246994477Y-128654526D01*
X247061319Y-128655576D01*
X247061322Y-128655576D01*
X247068916Y-128655695D01*
X247223332Y-128620329D01*
X247293742Y-128584917D01*
X247358072Y-128552563D01*
X247358075Y-128552561D01*
X247364855Y-128549151D01*
X247370626Y-128544222D01*
X247370629Y-128544220D01*
X247479542Y-128451199D01*
X247479543Y-128451198D01*
X247485314Y-128446269D01*
X247495586Y-128431974D01*
X247551581Y-128388326D01*
X247597909Y-128379500D01*
X249163579Y-128379500D01*
X249223701Y-128394769D01*
X249257293Y-128413008D01*
X249410522Y-128453207D01*
X249494477Y-128454526D01*
X249561319Y-128455576D01*
X249561322Y-128455576D01*
X249568916Y-128455695D01*
X249723332Y-128420329D01*
X249804512Y-128379500D01*
X249858072Y-128352563D01*
X249858075Y-128352561D01*
X249864855Y-128349151D01*
X249870626Y-128344222D01*
X249870629Y-128344220D01*
X249979536Y-128251204D01*
X249979536Y-128251203D01*
X249985314Y-128246269D01*
X250077755Y-128117624D01*
X250136842Y-127970641D01*
X250151765Y-127865785D01*
X250158581Y-127817891D01*
X250158581Y-127817888D01*
X250159162Y-127813807D01*
X250159307Y-127800000D01*
X250140276Y-127642733D01*
X250084280Y-127494546D01*
X250075813Y-127482227D01*
X249998855Y-127370251D01*
X249998854Y-127370249D01*
X249994553Y-127363992D01*
X249876275Y-127258611D01*
X249868889Y-127254700D01*
X249742988Y-127188039D01*
X249742989Y-127188039D01*
X249736274Y-127184484D01*
X249582633Y-127145892D01*
X249575034Y-127145852D01*
X249575033Y-127145852D01*
X249509181Y-127145507D01*
X249424221Y-127145062D01*
X249416841Y-127146834D01*
X249416839Y-127146834D01*
X249277563Y-127180271D01*
X249277560Y-127180272D01*
X249270184Y-127182043D01*
X249129414Y-127254700D01*
X249010039Y-127358838D01*
X249005672Y-127365052D01*
X248936366Y-127463664D01*
X248918950Y-127488444D01*
X248916190Y-127495524D01*
X248898744Y-127540270D01*
X248855363Y-127596472D01*
X248781351Y-127620500D01*
X247599682Y-127620500D01*
X247531561Y-127600498D01*
X247505114Y-127574860D01*
X247503878Y-127575949D01*
X247498855Y-127570251D01*
X247494553Y-127563992D01*
X247376275Y-127458611D01*
X247368889Y-127454700D01*
X247242988Y-127388039D01*
X247242989Y-127388039D01*
X247236274Y-127384484D01*
X247082633Y-127345892D01*
X247075034Y-127345852D01*
X247075033Y-127345852D01*
X247009181Y-127345507D01*
X246924221Y-127345062D01*
X246916841Y-127346834D01*
X246916839Y-127346834D01*
X246777563Y-127380271D01*
X246777560Y-127380272D01*
X246770184Y-127382043D01*
X246629414Y-127454700D01*
X246510039Y-127558838D01*
X246418950Y-127688444D01*
X246361406Y-127836037D01*
X246360414Y-127843570D01*
X246360414Y-127843571D01*
X246342757Y-127977695D01*
X246340729Y-127993096D01*
X220121991Y-127993096D01*
X220181890Y-127970641D01*
X220244764Y-127947071D01*
X220251943Y-127941691D01*
X220251946Y-127941689D01*
X220353224Y-127865785D01*
X220360404Y-127860404D01*
X220392266Y-127817891D01*
X220441689Y-127751946D01*
X220441691Y-127751943D01*
X220447071Y-127744764D01*
X220485320Y-127642733D01*
X220495026Y-127616843D01*
X220495026Y-127616841D01*
X220497798Y-127609448D01*
X220504500Y-127547756D01*
X220504500Y-126523934D01*
X220504847Y-126514596D01*
X220506445Y-126493096D01*
X224666229Y-126493096D01*
X224674921Y-126571825D01*
X224680502Y-126622372D01*
X224683613Y-126650553D01*
X224686223Y-126657684D01*
X224686223Y-126657686D01*
X224734784Y-126790385D01*
X224738053Y-126799319D01*
X224742289Y-126805622D01*
X224742289Y-126805623D01*
X224821339Y-126923261D01*
X224826408Y-126930805D01*
X224832027Y-126935918D01*
X224832028Y-126935919D01*
X224843403Y-126946269D01*
X224943576Y-127037419D01*
X225082793Y-127113008D01*
X225236022Y-127153207D01*
X225319977Y-127154526D01*
X225386819Y-127155576D01*
X225386822Y-127155576D01*
X225394416Y-127155695D01*
X225548832Y-127120329D01*
X225647261Y-127070825D01*
X225683572Y-127052563D01*
X225683575Y-127052561D01*
X225690355Y-127049151D01*
X225696126Y-127044222D01*
X225696129Y-127044220D01*
X225805042Y-126951199D01*
X225805043Y-126951198D01*
X225810814Y-126946269D01*
X225821086Y-126931974D01*
X225877081Y-126888326D01*
X225923409Y-126879500D01*
X228997216Y-126879500D01*
X229065337Y-126899502D01*
X229101798Y-126935224D01*
X229174553Y-127043495D01*
X229180172Y-127048608D01*
X229180173Y-127048609D01*
X229250947Y-127113008D01*
X229291721Y-127150109D01*
X229430938Y-127225698D01*
X229584167Y-127265897D01*
X229668122Y-127267216D01*
X229734964Y-127268266D01*
X229734967Y-127268266D01*
X229742561Y-127268385D01*
X229896977Y-127233019D01*
X229986411Y-127188039D01*
X230031717Y-127165253D01*
X230031720Y-127165251D01*
X230038500Y-127161841D01*
X230044271Y-127156912D01*
X230044274Y-127156910D01*
X230153181Y-127063894D01*
X230153181Y-127063893D01*
X230158959Y-127058959D01*
X230251400Y-126930314D01*
X230310487Y-126783331D01*
X230328368Y-126657686D01*
X230332226Y-126630581D01*
X230332226Y-126630578D01*
X230332807Y-126626497D01*
X230332952Y-126612690D01*
X230332385Y-126608000D01*
X230323126Y-126531490D01*
X230313921Y-126455423D01*
X230257925Y-126307236D01*
X230251393Y-126297732D01*
X230172500Y-126182941D01*
X230172499Y-126182939D01*
X230168198Y-126176682D01*
X230095326Y-126111755D01*
X230057771Y-126051506D01*
X230053145Y-126017679D01*
X230053145Y-125535739D01*
X230073147Y-125467618D01*
X230090050Y-125446644D01*
X230120289Y-125416405D01*
X230182601Y-125382379D01*
X230209384Y-125379500D01*
X231946080Y-125379500D01*
X231970028Y-125382049D01*
X231971693Y-125382128D01*
X231981876Y-125384320D01*
X231992217Y-125383096D01*
X232015223Y-125380373D01*
X232021154Y-125380023D01*
X232021146Y-125379928D01*
X232026324Y-125379500D01*
X232031524Y-125379500D01*
X232036653Y-125378646D01*
X232036656Y-125378646D01*
X232050565Y-125376331D01*
X232056443Y-125375494D01*
X232097001Y-125370694D01*
X232097002Y-125370694D01*
X232107341Y-125369470D01*
X232115593Y-125365507D01*
X232124626Y-125364004D01*
X232133795Y-125359057D01*
X232133797Y-125359056D01*
X232169732Y-125339666D01*
X232175025Y-125336969D01*
X232214082Y-125318215D01*
X232214086Y-125318212D01*
X232221232Y-125314781D01*
X232225508Y-125311186D01*
X232227431Y-125309263D01*
X232229363Y-125307491D01*
X232229442Y-125307448D01*
X232229555Y-125307572D01*
X232230095Y-125307096D01*
X232235814Y-125304010D01*
X232246359Y-125292603D01*
X233515424Y-125292603D01*
X233534166Y-125498550D01*
X233592554Y-125696934D01*
X233595411Y-125702399D01*
X233685508Y-125874739D01*
X233685511Y-125874743D01*
X233688363Y-125880199D01*
X233692223Y-125884999D01*
X233692223Y-125885000D01*
X233694666Y-125888039D01*
X233817943Y-126041365D01*
X233976360Y-126174292D01*
X234157578Y-126273918D01*
X234354696Y-126336447D01*
X234360813Y-126337133D01*
X234360817Y-126337134D01*
X234436837Y-126345661D01*
X234515640Y-126354500D01*
X235877034Y-126354500D01*
X236030811Y-126339422D01*
X236228783Y-126279651D01*
X236387003Y-126195524D01*
X236405933Y-126185459D01*
X236405936Y-126185457D01*
X236411375Y-126182565D01*
X236416145Y-126178674D01*
X236416149Y-126178672D01*
X236566857Y-126055758D01*
X236566860Y-126055755D01*
X236571632Y-126051863D01*
X236584288Y-126036565D01*
X236699522Y-125897271D01*
X236699525Y-125897266D01*
X236703450Y-125892522D01*
X236707796Y-125884484D01*
X236798878Y-125716032D01*
X236798880Y-125716027D01*
X236801808Y-125710612D01*
X236862960Y-125513063D01*
X236866062Y-125483549D01*
X236883932Y-125313526D01*
X236883932Y-125313524D01*
X236884576Y-125307397D01*
X236883230Y-125292603D01*
X238315424Y-125292603D01*
X238334166Y-125498550D01*
X238392554Y-125696934D01*
X238395411Y-125702399D01*
X238485508Y-125874739D01*
X238485511Y-125874743D01*
X238488363Y-125880199D01*
X238492223Y-125884999D01*
X238492223Y-125885000D01*
X238494666Y-125888039D01*
X238617943Y-126041365D01*
X238776360Y-126174292D01*
X238957578Y-126273918D01*
X239154696Y-126336447D01*
X239160813Y-126337133D01*
X239160817Y-126337134D01*
X239236837Y-126345661D01*
X239315640Y-126354500D01*
X240677034Y-126354500D01*
X240830811Y-126339422D01*
X241028783Y-126279651D01*
X241187003Y-126195524D01*
X241205933Y-126185459D01*
X241205936Y-126185457D01*
X241211375Y-126182565D01*
X241216145Y-126178674D01*
X241216149Y-126178672D01*
X241366857Y-126055758D01*
X241366860Y-126055755D01*
X241371632Y-126051863D01*
X241384288Y-126036565D01*
X241499522Y-125897271D01*
X241499525Y-125897266D01*
X241503450Y-125892522D01*
X241507796Y-125884484D01*
X241598878Y-125716032D01*
X241598880Y-125716027D01*
X241601808Y-125710612D01*
X241646412Y-125566522D01*
X242892273Y-125566522D01*
X242939764Y-125743761D01*
X242943510Y-125754053D01*
X243035586Y-125951511D01*
X243041069Y-125961007D01*
X243166028Y-126139467D01*
X243173084Y-126147875D01*
X243327125Y-126301916D01*
X243335533Y-126308972D01*
X243513993Y-126433931D01*
X243523489Y-126439414D01*
X243720947Y-126531490D01*
X243731239Y-126535236D01*
X243941688Y-126591625D01*
X243952481Y-126593528D01*
X244115170Y-126607762D01*
X244120635Y-126608000D01*
X244527885Y-126608000D01*
X244543124Y-126603525D01*
X244544329Y-126602135D01*
X244546000Y-126594452D01*
X244546000Y-126589885D01*
X245054000Y-126589885D01*
X245058475Y-126605124D01*
X245059865Y-126606329D01*
X245067548Y-126608000D01*
X245479365Y-126608000D01*
X245484830Y-126607762D01*
X245647519Y-126593528D01*
X245658312Y-126591625D01*
X245868761Y-126535236D01*
X245879053Y-126531490D01*
X246076511Y-126439414D01*
X246086007Y-126433931D01*
X246264467Y-126308972D01*
X246272875Y-126301916D01*
X246426916Y-126147875D01*
X246433972Y-126139467D01*
X246558931Y-125961007D01*
X246564414Y-125951511D01*
X246656490Y-125754053D01*
X246660236Y-125743761D01*
X246706394Y-125571497D01*
X246706058Y-125557401D01*
X246698116Y-125554000D01*
X245072115Y-125554000D01*
X245056876Y-125558475D01*
X245055671Y-125559865D01*
X245054000Y-125567548D01*
X245054000Y-126589885D01*
X244546000Y-126589885D01*
X244546000Y-125572115D01*
X244541525Y-125556876D01*
X244540135Y-125555671D01*
X244532452Y-125554000D01*
X242907033Y-125554000D01*
X242893502Y-125557973D01*
X242892273Y-125566522D01*
X241646412Y-125566522D01*
X241662960Y-125513063D01*
X241666062Y-125483549D01*
X241683932Y-125313526D01*
X241683932Y-125313524D01*
X241684576Y-125307397D01*
X241665834Y-125101450D01*
X241644364Y-125028503D01*
X242893606Y-125028503D01*
X242893942Y-125042599D01*
X242901884Y-125046000D01*
X244527885Y-125046000D01*
X244543124Y-125041525D01*
X244544329Y-125040135D01*
X244546000Y-125032452D01*
X244546000Y-125027885D01*
X245054000Y-125027885D01*
X245058475Y-125043124D01*
X245059865Y-125044329D01*
X245067548Y-125046000D01*
X246692967Y-125046000D01*
X246706498Y-125042027D01*
X246707727Y-125033478D01*
X246660236Y-124856239D01*
X246656490Y-124845947D01*
X246564414Y-124648489D01*
X246558931Y-124638993D01*
X246433972Y-124460533D01*
X246426916Y-124452125D01*
X246272875Y-124298084D01*
X246264467Y-124291028D01*
X246086007Y-124166069D01*
X246076511Y-124160586D01*
X245879053Y-124068510D01*
X245868761Y-124064764D01*
X245658312Y-124008375D01*
X245647519Y-124006472D01*
X245484830Y-123992238D01*
X245479365Y-123992000D01*
X245072115Y-123992000D01*
X245056876Y-123996475D01*
X245055671Y-123997865D01*
X245054000Y-124005548D01*
X245054000Y-125027885D01*
X244546000Y-125027885D01*
X244546000Y-124010115D01*
X244541525Y-123994876D01*
X244540135Y-123993671D01*
X244532452Y-123992000D01*
X244120635Y-123992000D01*
X244115170Y-123992238D01*
X243952481Y-124006472D01*
X243941688Y-124008375D01*
X243731239Y-124064764D01*
X243720947Y-124068510D01*
X243523489Y-124160586D01*
X243513993Y-124166069D01*
X243335533Y-124291028D01*
X243327125Y-124298084D01*
X243173084Y-124452125D01*
X243166028Y-124460533D01*
X243041069Y-124638993D01*
X243035586Y-124648489D01*
X242943510Y-124845947D01*
X242939764Y-124856239D01*
X242893606Y-125028503D01*
X241644364Y-125028503D01*
X241607446Y-124903066D01*
X241597462Y-124883968D01*
X241514492Y-124725261D01*
X241514489Y-124725257D01*
X241511637Y-124719801D01*
X241506089Y-124712900D01*
X241446666Y-124638993D01*
X241382057Y-124558635D01*
X241223640Y-124425708D01*
X241042422Y-124326082D01*
X240845304Y-124263553D01*
X240839187Y-124262867D01*
X240839183Y-124262866D01*
X240763163Y-124254339D01*
X240684360Y-124245500D01*
X239322966Y-124245500D01*
X239169189Y-124260578D01*
X238971217Y-124320349D01*
X238879921Y-124368892D01*
X238794067Y-124414541D01*
X238794064Y-124414543D01*
X238788625Y-124417435D01*
X238783855Y-124421326D01*
X238783851Y-124421328D01*
X238633143Y-124544242D01*
X238633140Y-124544245D01*
X238628368Y-124548137D01*
X238624441Y-124552884D01*
X238624439Y-124552886D01*
X238500478Y-124702729D01*
X238500475Y-124702734D01*
X238496550Y-124707478D01*
X238493620Y-124712897D01*
X238493618Y-124712900D01*
X238401122Y-124883968D01*
X238401120Y-124883973D01*
X238398192Y-124889388D01*
X238337040Y-125086937D01*
X238336396Y-125093062D01*
X238336396Y-125093063D01*
X238317723Y-125270733D01*
X238315424Y-125292603D01*
X236883230Y-125292603D01*
X236865834Y-125101450D01*
X236807446Y-124903066D01*
X236797462Y-124883968D01*
X236714492Y-124725261D01*
X236714489Y-124725257D01*
X236711637Y-124719801D01*
X236706089Y-124712900D01*
X236646666Y-124638993D01*
X236582057Y-124558635D01*
X236423640Y-124425708D01*
X236242422Y-124326082D01*
X236045304Y-124263553D01*
X236039187Y-124262867D01*
X236039183Y-124262866D01*
X235963163Y-124254339D01*
X235884360Y-124245500D01*
X234522966Y-124245500D01*
X234369189Y-124260578D01*
X234171217Y-124320349D01*
X234079921Y-124368892D01*
X233994067Y-124414541D01*
X233994064Y-124414543D01*
X233988625Y-124417435D01*
X233983855Y-124421326D01*
X233983851Y-124421328D01*
X233833143Y-124544242D01*
X233833140Y-124544245D01*
X233828368Y-124548137D01*
X233824441Y-124552884D01*
X233824439Y-124552886D01*
X233700478Y-124702729D01*
X233700475Y-124702734D01*
X233696550Y-124707478D01*
X233693620Y-124712897D01*
X233693618Y-124712900D01*
X233601122Y-124883968D01*
X233601120Y-124883973D01*
X233598192Y-124889388D01*
X233537040Y-125086937D01*
X233536396Y-125093062D01*
X233536396Y-125093063D01*
X233517723Y-125270733D01*
X233515424Y-125292603D01*
X232246359Y-125292603D01*
X232272416Y-125264414D01*
X232275846Y-125260848D01*
X232859073Y-124677621D01*
X232921385Y-124643595D01*
X232950144Y-124640732D01*
X232996753Y-124641464D01*
X233049995Y-124642301D01*
X233049998Y-124642301D01*
X233057592Y-124642420D01*
X233212008Y-124607054D01*
X233298736Y-124563435D01*
X233346748Y-124539288D01*
X233346751Y-124539286D01*
X233353531Y-124535876D01*
X233359302Y-124530947D01*
X233359305Y-124530945D01*
X233468212Y-124437929D01*
X233468212Y-124437928D01*
X233473990Y-124432994D01*
X233566431Y-124304349D01*
X233625518Y-124157366D01*
X233647838Y-124000532D01*
X233647983Y-123986725D01*
X233628952Y-123829458D01*
X233572956Y-123681271D01*
X233483229Y-123550717D01*
X233364951Y-123445336D01*
X233357565Y-123441425D01*
X233231664Y-123374764D01*
X233231665Y-123374764D01*
X233224950Y-123371209D01*
X233071309Y-123332617D01*
X233063710Y-123332577D01*
X233063709Y-123332577D01*
X232997857Y-123332232D01*
X232912897Y-123331787D01*
X232905517Y-123333559D01*
X232905515Y-123333559D01*
X232766239Y-123366996D01*
X232766236Y-123366997D01*
X232758860Y-123368768D01*
X232618090Y-123441425D01*
X232498715Y-123545563D01*
X232407626Y-123675169D01*
X232350082Y-123822762D01*
X232329405Y-123979821D01*
X232332558Y-124008375D01*
X232338085Y-124058443D01*
X232325679Y-124128348D01*
X232301941Y-124161365D01*
X231879711Y-124583595D01*
X231817399Y-124617621D01*
X231790616Y-124620500D01*
X230053925Y-124620500D01*
X230029967Y-124617950D01*
X230028308Y-124617872D01*
X230018124Y-124615679D01*
X230007782Y-124616903D01*
X230007779Y-124616903D01*
X229984779Y-124619626D01*
X229978848Y-124619976D01*
X229978856Y-124620072D01*
X229973680Y-124620500D01*
X229968476Y-124620500D01*
X229949412Y-124623673D01*
X229943566Y-124624504D01*
X229932117Y-124625859D01*
X229892659Y-124630530D01*
X229884407Y-124634493D01*
X229875374Y-124635996D01*
X229866205Y-124640943D01*
X229866203Y-124640944D01*
X229830268Y-124660334D01*
X229824976Y-124663031D01*
X229778768Y-124685219D01*
X229774493Y-124688813D01*
X229772568Y-124690738D01*
X229770638Y-124692509D01*
X229770553Y-124692555D01*
X229770441Y-124692432D01*
X229769906Y-124692904D01*
X229764186Y-124695990D01*
X229757119Y-124703635D01*
X229727584Y-124735586D01*
X229724154Y-124739152D01*
X229443429Y-125019877D01*
X229424681Y-125035019D01*
X229423456Y-125036134D01*
X229414705Y-125041784D01*
X229408258Y-125049962D01*
X229408256Y-125049964D01*
X229393916Y-125068155D01*
X229389970Y-125072596D01*
X229390043Y-125072658D01*
X229386684Y-125076622D01*
X229383007Y-125080299D01*
X229371753Y-125096047D01*
X229368247Y-125100717D01*
X229336489Y-125141002D01*
X229333457Y-125149636D01*
X229328131Y-125157089D01*
X229325146Y-125167070D01*
X229313444Y-125206199D01*
X229311609Y-125211847D01*
X229294627Y-125260206D01*
X229294145Y-125265771D01*
X229294145Y-125268479D01*
X229294031Y-125271113D01*
X229294002Y-125271211D01*
X229293838Y-125271204D01*
X229293794Y-125271908D01*
X229291932Y-125278133D01*
X229292341Y-125288538D01*
X229294048Y-125331990D01*
X229294145Y-125336937D01*
X229294145Y-125994500D01*
X229274143Y-126062621D01*
X229220487Y-126109114D01*
X229168145Y-126120500D01*
X225925182Y-126120500D01*
X225857061Y-126100498D01*
X225830614Y-126074860D01*
X225829378Y-126075949D01*
X225824355Y-126070251D01*
X225820053Y-126063992D01*
X225701775Y-125958611D01*
X225694389Y-125954700D01*
X225568488Y-125888039D01*
X225568489Y-125888039D01*
X225561774Y-125884484D01*
X225408133Y-125845892D01*
X225400534Y-125845852D01*
X225400533Y-125845852D01*
X225334681Y-125845507D01*
X225249721Y-125845062D01*
X225242341Y-125846834D01*
X225242339Y-125846834D01*
X225103063Y-125880271D01*
X225103060Y-125880272D01*
X225095684Y-125882043D01*
X224954914Y-125954700D01*
X224835539Y-126058838D01*
X224744450Y-126188444D01*
X224741690Y-126195524D01*
X224695366Y-126314339D01*
X224686906Y-126336037D01*
X224685914Y-126343570D01*
X224685914Y-126343571D01*
X224668706Y-126474284D01*
X224666229Y-126493096D01*
X220506445Y-126493096D01*
X220507843Y-126474284D01*
X220507843Y-126474283D01*
X220508508Y-126465333D01*
X220506635Y-126456558D01*
X220506043Y-126447874D01*
X220504500Y-126433258D01*
X220504500Y-122960144D01*
X220528176Y-122886620D01*
X220577755Y-122817624D01*
X220636842Y-122670641D01*
X220659162Y-122513807D01*
X220659307Y-122500000D01*
X220640276Y-122342733D01*
X220584280Y-122194546D01*
X220494553Y-122063992D01*
X220376275Y-121958611D01*
X220368889Y-121954700D01*
X220242988Y-121888039D01*
X220242989Y-121888039D01*
X220236274Y-121884484D01*
X220082633Y-121845892D01*
X220075034Y-121845852D01*
X220075033Y-121845852D01*
X220009181Y-121845507D01*
X219924221Y-121845062D01*
X219916841Y-121846834D01*
X219916839Y-121846834D01*
X219777563Y-121880271D01*
X219777560Y-121880272D01*
X219770184Y-121882043D01*
X219629414Y-121954700D01*
X219510039Y-122058838D01*
X219418950Y-122188444D01*
X219361406Y-122336037D01*
X219340729Y-122493096D01*
X219358113Y-122650553D01*
X219412553Y-122799319D01*
X219416789Y-122805622D01*
X219416789Y-122805623D01*
X219474082Y-122890884D01*
X219495500Y-122961160D01*
X219495500Y-125869500D01*
X219475498Y-125937621D01*
X219421842Y-125984114D01*
X219369500Y-125995500D01*
X218952244Y-125995500D01*
X218948848Y-125995869D01*
X218948847Y-125995869D01*
X218898403Y-126001349D01*
X218898402Y-126001349D01*
X218890552Y-126002202D01*
X218883159Y-126004974D01*
X218883157Y-126004974D01*
X218849267Y-126017679D01*
X218755236Y-126052929D01*
X218748057Y-126058309D01*
X218748054Y-126058311D01*
X218680268Y-126109114D01*
X218639596Y-126139596D01*
X218634215Y-126146776D01*
X218558311Y-126248054D01*
X218558309Y-126248057D01*
X218552929Y-126255236D01*
X218522485Y-126336447D01*
X218512918Y-126361968D01*
X218502202Y-126390552D01*
X218501920Y-126393149D01*
X218467865Y-126452761D01*
X218404909Y-126485581D01*
X218334204Y-126479155D01*
X218278198Y-126435522D01*
X218254500Y-126361968D01*
X218254500Y-121047095D01*
X233242001Y-121047095D01*
X233242338Y-121053614D01*
X233252257Y-121149206D01*
X233255149Y-121162600D01*
X233306588Y-121316784D01*
X233312761Y-121329962D01*
X233398063Y-121467807D01*
X233407099Y-121479208D01*
X233521829Y-121593739D01*
X233533240Y-121602751D01*
X233671243Y-121687816D01*
X233684424Y-121693963D01*
X233838710Y-121745138D01*
X233852086Y-121748005D01*
X233946438Y-121757672D01*
X233952854Y-121758000D01*
X234227885Y-121758000D01*
X234243124Y-121753525D01*
X234244329Y-121752135D01*
X234246000Y-121744452D01*
X234246000Y-121739884D01*
X234754000Y-121739884D01*
X234758475Y-121755123D01*
X234759865Y-121756328D01*
X234767548Y-121757999D01*
X235047095Y-121757999D01*
X235053614Y-121757662D01*
X235149206Y-121747743D01*
X235162600Y-121744851D01*
X235316784Y-121693412D01*
X235329962Y-121687239D01*
X235467807Y-121601937D01*
X235479208Y-121592901D01*
X235593739Y-121478171D01*
X235602751Y-121466760D01*
X235687816Y-121328757D01*
X235693963Y-121315576D01*
X235745138Y-121161290D01*
X235748005Y-121147914D01*
X235757672Y-121053562D01*
X235758000Y-121047146D01*
X235758000Y-120772115D01*
X235753525Y-120756876D01*
X235752135Y-120755671D01*
X235744452Y-120754000D01*
X234772115Y-120754000D01*
X234756876Y-120758475D01*
X234755671Y-120759865D01*
X234754000Y-120767548D01*
X234754000Y-121739884D01*
X234246000Y-121739884D01*
X234246000Y-120772115D01*
X234241525Y-120756876D01*
X234240135Y-120755671D01*
X234232452Y-120754000D01*
X233260116Y-120754000D01*
X233244877Y-120758475D01*
X233243672Y-120759865D01*
X233242001Y-120767548D01*
X233242001Y-121047095D01*
X218254500Y-121047095D01*
X218254500Y-119380500D01*
X218274502Y-119312379D01*
X218328158Y-119265886D01*
X218380500Y-119254500D01*
X233369308Y-119254500D01*
X233437429Y-119274502D01*
G37*
%TD.AperFunction*%
%TD*%
M02*
